<mxfile host="65bd71144e" pages="3">
    <diagram name="NetworkPolicy-Disabled" id="TIKukc__NlJQYqkLnaR7">
        <mxGraphModel dx="1177" dy="439" grid="0" gridSize="10" guides="1" tooltips="1" connect="1" arrows="1" fold="1" page="0" pageScale="1" pageWidth="850" pageHeight="1100" math="0" shadow="0">
            <root>
                <mxCell id="he0kqgZxXAUqB0J18NEI-0"/>
                <mxCell id="he0kqgZxXAUqB0J18NEI-1" parent="he0kqgZxXAUqB0J18NEI-0"/>
                <mxCell id="he0kqgZxXAUqB0J18NEI-3" value="&lt;font style=&quot;font-size: 12px;&quot;&gt;az-hub-vnet&lt;br&gt;10.0.20.0/24&lt;br&gt;&lt;/font&gt;" style="whiteSpace=wrap;html=1;labelBackgroundColor=none;fontFamily=Verdana;fontSize=15;labelPosition=center;verticalLabelPosition=top;align=center;verticalAlign=bottom;strokeColor=#007FFF;dashed=1;" parent="he0kqgZxXAUqB0J18NEI-1" vertex="1">
                    <mxGeometry x="260" y="542" width="357.24" height="290" as="geometry"/>
                </mxCell>
                <mxCell id="he0kqgZxXAUqB0J18NEI-4" value="GatewaySubnet&lt;br style=&quot;font-size: 8px;&quot;&gt;10.0.20.32/27" style="whiteSpace=wrap;html=1;labelBackgroundColor=none;fontFamily=Verdana;fillColor=#f5f5f5;fontColor=#333333;strokeColor=none;fontSize=8;labelPosition=center;verticalLabelPosition=top;align=center;verticalAlign=bottom;" parent="he0kqgZxXAUqB0J18NEI-1" vertex="1">
                    <mxGeometry x="269.74" y="572" width="103.69" height="232" as="geometry"/>
                </mxCell>
                <mxCell id="he0kqgZxXAUqB0J18NEI-5" style="edgeStyle=none;html=1;entryX=0.5;entryY=0;entryDx=0;entryDy=0;strokeColor=#FF8000;fontSize=8;endArrow=none;endFill=0;" parent="he0kqgZxXAUqB0J18NEI-1" target="he0kqgZxXAUqB0J18NEI-29" edge="1">
                    <mxGeometry relative="1" as="geometry">
                        <mxPoint x="322" y="720" as="sourcePoint"/>
                    </mxGeometry>
                </mxCell>
                <mxCell id="he0kqgZxXAUqB0J18NEI-6" value="S2S VPN&lt;br&gt;BGP over IPSec" style="edgeLabel;html=1;align=center;verticalAlign=middle;resizable=0;points=[];fontSize=10;" parent="he0kqgZxXAUqB0J18NEI-5" vertex="1" connectable="0">
                    <mxGeometry x="0.3981" y="2" relative="1" as="geometry">
                        <mxPoint as="offset"/>
                    </mxGeometry>
                </mxCell>
                <mxCell id="he0kqgZxXAUqB0J18NEI-7" value="az-hub-vpngw&lt;br style=&quot;font-size: 11px;&quot;&gt;" style="aspect=fixed;html=1;points=[];align=center;image;fontSize=11;image=img/lib/azure2/networking/Virtual_Network_Gateways.svg;glass=0;dashed=1;dashPattern=8 8;strokeColor=#E6E6E6;fontColor=#000000;fillColor=#CCCCCC;rounded=0;sketch=1;hachureGap=4;jiggle=2;curveFitting=1;fontFamily=Verdana;labelBackgroundColor=none;" parent="he0kqgZxXAUqB0J18NEI-1" vertex="1">
                    <mxGeometry x="307.60982456140357" y="657.2133884116065" width="27.943925233644855" height="37.081588785046726" as="geometry"/>
                </mxCell>
                <mxCell id="he0kqgZxXAUqB0J18NEI-8" value="Untrusted&lt;br style=&quot;font-size: 8px;&quot;&gt;10.0.20.64/28" style="whiteSpace=wrap;html=1;labelBackgroundColor=none;fontFamily=Verdana;fillColor=#f5f5f5;fontColor=#333333;strokeColor=none;fontSize=8;labelPosition=center;verticalLabelPosition=top;align=center;verticalAlign=bottom;" parent="he0kqgZxXAUqB0J18NEI-1" vertex="1">
                    <mxGeometry x="376" y="574" width="130" height="112" as="geometry"/>
                </mxCell>
                <mxCell id="he0kqgZxXAUqB0J18NEI-9" value="Subnet1&lt;br style=&quot;font-size: 8px;&quot;&gt;10.0.20.0/27" style="whiteSpace=wrap;html=1;labelBackgroundColor=none;fontFamily=Verdana;fillColor=#f5f5f5;fontColor=#333333;strokeColor=none;fontSize=8;labelPosition=center;verticalLabelPosition=top;align=center;verticalAlign=bottom;" parent="he0kqgZxXAUqB0J18NEI-1" vertex="1">
                    <mxGeometry x="508" y="572" width="100.01" height="91" as="geometry"/>
                </mxCell>
                <mxCell id="he0kqgZxXAUqB0J18NEI-10" value="Trusted&lt;br style=&quot;font-size: 8px;&quot;&gt;10.0.20.80/28" style="whiteSpace=wrap;html=1;labelBackgroundColor=none;fontFamily=Verdana;fillColor=#f5f5f5;fontColor=#333333;strokeColor=none;fontSize=8;labelPosition=center;verticalLabelPosition=bottom;align=center;verticalAlign=top;direction=south;" parent="he0kqgZxXAUqB0J18NEI-1" vertex="1">
                    <mxGeometry x="376" y="690" width="129" height="111" as="geometry"/>
                </mxCell>
                <mxCell id="he0kqgZxXAUqB0J18NEI-12" style="edgeStyle=none;html=1;strokeColor=#000000;strokeWidth=1;fontFamily=Verdana;fontSize=8;fontColor=#000000;endArrow=none;endFill=0;opacity=30;entryX=0.496;entryY=0.002;entryDx=0;entryDy=0;entryPerimeter=0;dashed=1;dashPattern=1 1;" parent="he0kqgZxXAUqB0J18NEI-1" source="he0kqgZxXAUqB0J18NEI-13" target="he0kqgZxXAUqB0J18NEI-11" edge="1">
                    <mxGeometry relative="1" as="geometry">
                        <mxPoint x="449" y="630" as="targetPoint"/>
                    </mxGeometry>
                </mxCell>
                <mxCell id="he0kqgZxXAUqB0J18NEI-14" style="edgeStyle=none;html=1;strokeColor=#000000;fontSize=8;endArrow=none;endFill=0;opacity=30;fontFamily=Verdana;fontColor=#000000;strokeWidth=1;dashed=1;dashPattern=1 1;" parent="he0kqgZxXAUqB0J18NEI-1" source="he0kqgZxXAUqB0J18NEI-15" target="he0kqgZxXAUqB0J18NEI-11" edge="1">
                    <mxGeometry relative="1" as="geometry"/>
                </mxCell>
                <mxCell id="he0kqgZxXAUqB0J18NEI-13" value="10.0.20.68&lt;br&gt;Untrusted NIC -&amp;gt; Internet" style="aspect=fixed;html=1;points=[];align=center;image;fontSize=8;image=img/lib/azure2/networking/Network_Interfaces.svg;labelBackgroundColor=none;fontFamily=Verdana;fontColor=#000000;fillColor=none;labelPosition=center;verticalLabelPosition=top;verticalAlign=bottom;fontStyle=1;spacing=4;" parent="he0kqgZxXAUqB0J18NEI-1" vertex="1">
                    <mxGeometry x="432.38" y="603.5" width="23.24" height="20.5" as="geometry"/>
                </mxCell>
                <mxCell id="he0kqgZxXAUqB0J18NEI-15" value="Trusted-NIC&lt;br&gt;10.0.20.84" style="aspect=fixed;html=1;points=[];align=center;image;fontSize=10;image=img/lib/azure2/networking/Network_Interfaces.svg;labelBackgroundColor=none;fontFamily=Verdana;fontColor=#000000;fillColor=none;labelPosition=center;verticalLabelPosition=bottom;verticalAlign=top;fontStyle=1;spacing=4;" parent="he0kqgZxXAUqB0J18NEI-1" vertex="1">
                    <mxGeometry x="432.95" y="714.85" width="22.67" height="20" as="geometry"/>
                </mxCell>
                <mxCell id="he0kqgZxXAUqB0J18NEI-16" value="hubsql" style="aspect=fixed;html=1;points=[];align=center;image;fontSize=12;image=img/lib/azure2/databases/SQL_Server.svg;dashed=1;labelBackgroundColor=none;strokeColor=#0000FF;" parent="he0kqgZxXAUqB0J18NEI-1" vertex="1">
                    <mxGeometry x="659.82" y="724.6" width="50" height="50" as="geometry"/>
                </mxCell>
                <mxCell id="he0kqgZxXAUqB0J18NEI-17" value="&lt;span style=&quot;font-weight: 400; font-size: 11px;&quot;&gt;az-hub-lxvm&lt;br style=&quot;font-size: 11px;&quot;&gt;10.0.20.4&lt;br style=&quot;font-size: 11px;&quot;&gt;&lt;/span&gt;" style="aspect=fixed;html=1;points=[];align=center;image;fontSize=11;image=img/lib/azure2/compute/Virtual_Machine.svg;labelBackgroundColor=none;fontFamily=Verdana;fillColor=default;fontStyle=1" parent="he0kqgZxXAUqB0J18NEI-1" vertex="1">
                    <mxGeometry x="540.0812999999999" y="585.6898865153539" width="34.086598798397866" height="31.616555407209614" as="geometry"/>
                </mxCell>
                <mxCell id="he0kqgZxXAUqB0J18NEI-18" style="edgeStyle=none;html=1;entryX=0.306;entryY=0;entryDx=0;entryDy=0;entryPerimeter=0;strokeColor=#007FFF;fontSize=10;endArrow=none;endFill=0;exitX=0.5;exitY=1;exitDx=0;exitDy=0;dashed=1;" parent="he0kqgZxXAUqB0J18NEI-1" source="he0kqgZxXAUqB0J18NEI-19" target="he0kqgZxXAUqB0J18NEI-3" edge="1">
                    <mxGeometry relative="1" as="geometry"/>
                </mxCell>
                <mxCell id="he0kqgZxXAUqB0J18NEI-19" value="az-spk1-vnet&lt;br style=&quot;font-size: 12px;&quot;&gt;10.0.21.0/24" style="whiteSpace=wrap;html=1;fillColor=none;strokeColor=#007FFF;dashed=1;labelBackgroundColor=none;fontFamily=Verdana;fontSize=12;labelPosition=center;verticalLabelPosition=top;align=right;verticalAlign=bottom;" parent="he0kqgZxXAUqB0J18NEI-1" vertex="1">
                    <mxGeometry x="65" y="334" width="254" height="129.19" as="geometry"/>
                </mxCell>
                <mxCell id="he0kqgZxXAUqB0J18NEI-20" value="" style="aspect=fixed;html=1;points=[];align=center;image;fontSize=12;image=img/lib/azure2/networking/Virtual_Networks.svg;dashed=1;labelBackgroundColor=none;fontFamily=Verdana;fillColor=default;" parent="he0kqgZxXAUqB0J18NEI-1" vertex="1">
                    <mxGeometry x="298.9" y="338" width="20.1" height="12" as="geometry"/>
                </mxCell>
                <mxCell id="he0kqgZxXAUqB0J18NEI-22" value="Subnet1&lt;br&gt;10.0.21.0/27" style="whiteSpace=wrap;html=1;labelBackgroundColor=none;fontFamily=Verdana;fillColor=#f5f5f5;fontColor=#333333;strokeColor=none;fontSize=8;labelPosition=center;verticalLabelPosition=top;align=left;verticalAlign=bottom;" parent="he0kqgZxXAUqB0J18NEI-1" vertex="1">
                    <mxGeometry x="225.61" y="358" width="82" height="98.98" as="geometry"/>
                </mxCell>
                <mxCell id="he0kqgZxXAUqB0J18NEI-23" value="az-spk1-lxvm&lt;br style=&quot;font-size: 10px;&quot;&gt;10.0.21.4" style="aspect=fixed;html=1;points=[];align=center;image;fontSize=10;image=img/lib/azure2/compute/Virtual_Machine.svg;labelBackgroundColor=none;fontFamily=Verdana;fillColor=default;" parent="he0kqgZxXAUqB0J18NEI-1" vertex="1">
                    <mxGeometry x="252.61130000000003" y="374.9998865153538" width="34.086598798397866" height="31.616555407209614" as="geometry"/>
                </mxCell>
                <mxCell id="he0kqgZxXAUqB0J18NEI-24" value="az-spk2-vnet&lt;br style=&quot;font-size: 12px;&quot;&gt;10.0.22.0/24" style="whiteSpace=wrap;html=1;fillColor=none;strokeColor=#007FFF;dashed=1;labelBackgroundColor=none;fontFamily=Verdana;fontSize=12;labelPosition=center;verticalLabelPosition=top;align=left;verticalAlign=bottom;" parent="he0kqgZxXAUqB0J18NEI-1" vertex="1">
                    <mxGeometry x="543" y="338" width="266" height="129" as="geometry"/>
                </mxCell>
                <mxCell id="he0kqgZxXAUqB0J18NEI-25" value="" style="aspect=fixed;html=1;points=[];align=center;image;fontSize=12;image=img/lib/azure2/networking/Virtual_Networks.svg;dashed=1;labelBackgroundColor=none;fontFamily=Verdana;fillColor=default;" parent="he0kqgZxXAUqB0J18NEI-1" vertex="1">
                    <mxGeometry x="786" y="352.19" width="20.1" height="12" as="geometry"/>
                </mxCell>
                <mxCell id="he0kqgZxXAUqB0J18NEI-26" style="edgeStyle=none;html=1;entryX=0.75;entryY=0;entryDx=0;entryDy=0;strokeColor=#007FFF;fontSize=10;endArrow=none;endFill=0;exitX=0.5;exitY=1;exitDx=0;exitDy=0;dashed=1;" parent="he0kqgZxXAUqB0J18NEI-1" source="he0kqgZxXAUqB0J18NEI-24" target="he0kqgZxXAUqB0J18NEI-3" edge="1">
                    <mxGeometry relative="1" as="geometry"/>
                </mxCell>
                <mxCell id="he0kqgZxXAUqB0J18NEI-27" value="Subnet1&lt;br&gt;10.0.22.0/27&lt;br&gt;" style="whiteSpace=wrap;html=1;labelBackgroundColor=none;fontFamily=Verdana;fillColor=#f5f5f5;fontColor=#333333;strokeColor=none;fontSize=8;labelPosition=center;verticalLabelPosition=top;align=left;verticalAlign=bottom;" parent="he0kqgZxXAUqB0J18NEI-1" vertex="1">
                    <mxGeometry x="552" y="366" width="86" height="96.79" as="geometry"/>
                </mxCell>
                <mxCell id="he0kqgZxXAUqB0J18NEI-28" value="az-spk2-lxvm&lt;br style=&quot;font-size: 10px;&quot;&gt;10.0.22.4" style="aspect=fixed;html=1;points=[];align=center;image;fontSize=10;image=img/lib/azure2/compute/Virtual_Machine.svg;labelBackgroundColor=none;fontFamily=Verdana;fillColor=default;" parent="he0kqgZxXAUqB0J18NEI-1" vertex="1">
                    <mxGeometry x="579.0013" y="376.2498865153538" width="34.086598798397866" height="31.616555407209614" as="geometry"/>
                </mxCell>
                <mxCell id="he0kqgZxXAUqB0J18NEI-29" value="On-premies&lt;br style=&quot;font-size: 11px;&quot;&gt;192.168.100.0/24&lt;br style=&quot;font-size: 11px;&quot;&gt;&lt;br style=&quot;font-size: 11px;&quot;&gt;onprem-lxvm &lt;br style=&quot;font-size: 11px;&quot;&gt;192.168.100.4" style="whiteSpace=wrap;html=1;fillColor=#f5f5f5;strokeColor=#666666;dashed=1;labelBackgroundColor=none;gradientColor=#b3b3b3;fontStyle=1;fontSize=11;" parent="he0kqgZxXAUqB0J18NEI-1" vertex="1">
                    <mxGeometry x="228.99999999999994" y="958" width="190" height="120" as="geometry"/>
                </mxCell>
                <mxCell id="he0kqgZxXAUqB0J18NEI-30" style="edgeStyle=none;html=1;entryX=0.5;entryY=1;entryDx=0;entryDy=0;entryPerimeter=0;strokeColor=#999999;fontFamily=Verdana;fontSize=12;endArrow=none;endFill=0;dashed=1;" parent="he0kqgZxXAUqB0J18NEI-1" source="he0kqgZxXAUqB0J18NEI-51" target="he0kqgZxXAUqB0J18NEI-34" edge="1">
                    <mxGeometry relative="1" as="geometry"/>
                </mxCell>
                <mxCell id="he0kqgZxXAUqB0J18NEI-31" style="edgeStyle=none;html=1;dashed=1;strokeColor=#999999;fontFamily=Verdana;fontSize=12;endArrow=none;endFill=0;" parent="he0kqgZxXAUqB0J18NEI-1" source="he0kqgZxXAUqB0J18NEI-52" target="he0kqgZxXAUqB0J18NEI-35" edge="1">
                    <mxGeometry relative="1" as="geometry"/>
                </mxCell>
                <mxCell id="he0kqgZxXAUqB0J18NEI-32" value="" style="aspect=fixed;html=1;points=[];align=center;image;fontSize=12;image=img/lib/azure2/networking/Virtual_Networks.svg;dashed=1;labelBackgroundColor=none;fontFamily=Verdana;fillColor=default;" parent="he0kqgZxXAUqB0J18NEI-1" vertex="1">
                    <mxGeometry x="597.14" y="542" width="20.1" height="12" as="geometry"/>
                </mxCell>
                <mxCell id="he0kqgZxXAUqB0J18NEI-34" value="spk1stg" style="verticalLabelPosition=top;html=1;verticalAlign=bottom;align=center;strokeColor=none;fillColor=#00BEF2;shape=mxgraph.azure.storage;pointerEvents=1;labelBackgroundColor=none;labelPosition=center;" parent="he0kqgZxXAUqB0J18NEI-1" vertex="1">
                    <mxGeometry x="83.08999999999999" y="249.18999999999994" width="50" height="40" as="geometry"/>
                </mxCell>
                <mxCell id="he0kqgZxXAUqB0J18NEI-35" value="spk1sql" style="aspect=fixed;html=1;points=[];align=center;image;fontSize=12;image=img/lib/azure2/databases/SQL_Server.svg;dashed=1;labelBackgroundColor=none;strokeColor=#0000FF;labelPosition=center;verticalLabelPosition=top;verticalAlign=bottom;" parent="he0kqgZxXAUqB0J18NEI-1" vertex="1">
                    <mxGeometry x="155" y="249.19" width="40.81" height="40.81" as="geometry"/>
                </mxCell>
                <mxCell id="he0kqgZxXAUqB0J18NEI-36" style="edgeStyle=none;html=1;dashed=1;strokeColor=#999999;fontFamily=Verdana;fontSize=12;endArrow=none;endFill=0;" parent="he0kqgZxXAUqB0J18NEI-1" source="he0kqgZxXAUqB0J18NEI-37" target="he0kqgZxXAUqB0J18NEI-54" edge="1">
                    <mxGeometry relative="1" as="geometry"/>
                </mxCell>
                <mxCell id="he0kqgZxXAUqB0J18NEI-37" value="spk2stg" style="verticalLabelPosition=top;html=1;verticalAlign=bottom;align=center;strokeColor=none;fillColor=#00BEF2;shape=mxgraph.azure.storage;pointerEvents=1;labelBackgroundColor=none;labelPosition=center;" parent="he0kqgZxXAUqB0J18NEI-1" vertex="1">
                    <mxGeometry x="650.9100000000001" y="249.99999999999994" width="50" height="40" as="geometry"/>
                </mxCell>
                <mxCell id="he0kqgZxXAUqB0J18NEI-38" style="edgeStyle=none;html=1;dashed=1;strokeColor=#999999;fontFamily=Verdana;fontSize=12;endArrow=none;endFill=0;" parent="he0kqgZxXAUqB0J18NEI-1" source="he0kqgZxXAUqB0J18NEI-39" target="he0kqgZxXAUqB0J18NEI-55" edge="1">
                    <mxGeometry relative="1" as="geometry"/>
                </mxCell>
                <mxCell id="he0kqgZxXAUqB0J18NEI-39" value="spk2spg" style="aspect=fixed;html=1;points=[];align=center;image;fontSize=12;image=img/lib/azure2/databases/SQL_Server.svg;dashed=1;labelBackgroundColor=none;strokeColor=#0000FF;labelPosition=center;verticalLabelPosition=top;verticalAlign=bottom;" parent="he0kqgZxXAUqB0J18NEI-1" vertex="1">
                    <mxGeometry x="734.59" y="250" width="41" height="41" as="geometry"/>
                </mxCell>
                <mxCell id="he0kqgZxXAUqB0J18NEI-47" value="PESubnet&lt;br style=&quot;font-size: 9px;&quot;&gt;10.0.21.32/27" style="whiteSpace=wrap;html=1;labelBackgroundColor=none;fontFamily=Verdana;fillColor=#f5f5f5;fontColor=#333333;strokeColor=none;fontSize=9;labelPosition=center;verticalLabelPosition=top;align=center;verticalAlign=bottom;fontStyle=1" parent="he0kqgZxXAUqB0J18NEI-1" vertex="1">
                    <mxGeometry x="68.82" y="358.98" width="154" height="100.02" as="geometry"/>
                </mxCell>
                <mxCell id="he0kqgZxXAUqB0J18NEI-51" value="spk1stgpe&lt;br style=&quot;font-size: 11px;&quot;&gt;10.0.21.36" style="aspect=fixed;html=1;points=[];align=center;image;fontSize=11;image=img/lib/azure2/networking/Private_Endpoint.svg;labelBackgroundColor=none;fontStyle=1" parent="he0kqgZxXAUqB0J18NEI-1" vertex="1">
                    <mxGeometry x="91.73" y="368" width="32.73" height="30" as="geometry"/>
                </mxCell>
                <mxCell id="he0kqgZxXAUqB0J18NEI-52" value="spk1sqlpe&lt;br style=&quot;font-size: 11px;&quot;&gt;10.0.21.37" style="aspect=fixed;html=1;points=[];align=center;image;fontSize=11;image=img/lib/azure2/networking/Private_Endpoint.svg;labelBackgroundColor=none;fontStyle=1" parent="he0kqgZxXAUqB0J18NEI-1" vertex="1">
                    <mxGeometry x="159.32000000000002" y="371" width="32.18" height="29.5" as="geometry"/>
                </mxCell>
                <mxCell id="he0kqgZxXAUqB0J18NEI-53" value="PESubnet&lt;br style=&quot;font-size: 9px;&quot;&gt;10.0.22.32/27" style="whiteSpace=wrap;html=1;labelBackgroundColor=none;fontFamily=Verdana;fillColor=#f5f5f5;fontColor=#333333;strokeColor=none;fontSize=9;labelPosition=center;verticalLabelPosition=top;align=center;verticalAlign=bottom;fontStyle=1" parent="he0kqgZxXAUqB0J18NEI-1" vertex="1">
                    <mxGeometry x="642" y="366" width="161" height="96.79" as="geometry"/>
                </mxCell>
                <mxCell id="he0kqgZxXAUqB0J18NEI-54" value="spk2stgpe&lt;br style=&quot;font-size: 11px;&quot;&gt;10.0.22.36" style="aspect=fixed;html=1;points=[];align=center;image;fontSize=11;image=img/lib/azure2/networking/Private_Endpoint.svg;labelBackgroundColor=none;fontStyle=1" parent="he0kqgZxXAUqB0J18NEI-1" vertex="1">
                    <mxGeometry x="659.8199999999999" y="378.36999999999995" width="32.18" height="29.5" as="geometry"/>
                </mxCell>
                <mxCell id="he0kqgZxXAUqB0J18NEI-55" value="spk2sqlpe&lt;br style=&quot;font-size: 11px;&quot;&gt;10.0.22.37" style="aspect=fixed;html=1;points=[];align=center;image;fontSize=11;image=img/lib/azure2/networking/Private_Endpoint.svg;labelBackgroundColor=none;fontStyle=1" parent="he0kqgZxXAUqB0J18NEI-1" vertex="1">
                    <mxGeometry x="739" y="378.36999999999995" width="32.18" height="29.5" as="geometry"/>
                </mxCell>
                <mxCell id="he0kqgZxXAUqB0J18NEI-56" value="PESubnet&lt;br style=&quot;font-size: 9px;&quot;&gt;10.0.100.96/27" style="whiteSpace=wrap;html=1;labelBackgroundColor=none;fontFamily=Verdana;fillColor=#f5f5f5;fontColor=#333333;strokeColor=none;fontSize=9;labelPosition=center;verticalLabelPosition=bottom;align=center;verticalAlign=top;fontStyle=1" parent="he0kqgZxXAUqB0J18NEI-1" vertex="1">
                    <mxGeometry x="508" y="665" width="101.26" height="136" as="geometry"/>
                </mxCell>
                <mxCell id="he0kqgZxXAUqB0J18NEI-57" value="hubstgpe&lt;br style=&quot;font-size: 11px;&quot;&gt;10.0.20.100" style="aspect=fixed;html=1;points=[];align=center;image;fontSize=11;image=img/lib/azure2/networking/Private_Endpoint.svg;labelBackgroundColor=none;fontStyle=1" parent="he0kqgZxXAUqB0J18NEI-1" vertex="1">
                    <mxGeometry x="543.91" y="670" width="32.18" height="29.5" as="geometry"/>
                </mxCell>
                <mxCell id="he0kqgZxXAUqB0J18NEI-58" value="hubsqlpe&lt;br style=&quot;font-size: 11px;&quot;&gt;10.0.20.101" style="aspect=fixed;html=1;points=[];align=center;image;fontSize=11;image=img/lib/azure2/networking/Private_Endpoint.svg;labelBackgroundColor=none;fontStyle=1" parent="he0kqgZxXAUqB0J18NEI-1" vertex="1">
                    <mxGeometry x="541.99" y="734.85" width="32.18" height="29.5" as="geometry"/>
                </mxCell>
                <mxCell id="he0kqgZxXAUqB0J18NEI-59" style="edgeStyle=none;html=1;dashed=1;endArrow=none;endFill=0;opacity=50;" parent="he0kqgZxXAUqB0J18NEI-1" source="he0kqgZxXAUqB0J18NEI-16" target="he0kqgZxXAUqB0J18NEI-58" edge="1">
                    <mxGeometry relative="1" as="geometry"/>
                </mxCell>
                <mxCell id="he0kqgZxXAUqB0J18NEI-60" value="hubstg" style="verticalLabelPosition=bottom;html=1;verticalAlign=top;align=center;strokeColor=none;fillColor=#00BEF2;shape=mxgraph.azure.storage;pointerEvents=1;labelBackgroundColor=none;" parent="he0kqgZxXAUqB0J18NEI-1" vertex="1">
                    <mxGeometry x="651" y="664.75" width="50" height="40" as="geometry"/>
                </mxCell>
                <mxCell id="he0kqgZxXAUqB0J18NEI-61" style="edgeStyle=none;html=1;entryX=0;entryY=0.5;entryDx=0;entryDy=0;entryPerimeter=0;dashed=1;endArrow=none;endFill=0;opacity=50;" parent="he0kqgZxXAUqB0J18NEI-1" source="he0kqgZxXAUqB0J18NEI-57" target="he0kqgZxXAUqB0J18NEI-60" edge="1">
                    <mxGeometry relative="1" as="geometry"/>
                </mxCell>
                <mxCell id="he0kqgZxXAUqB0J18NEI-11" value="az-hub-opnnva1&#10;&#10;" style="aspect=fixed;points=[];align=center;image;fontSize=11;image=img/lib/azure2/compute/Virtual_Machine.svg;labelBackgroundColor=none;fontFamily=Verdana;fillColor=default;labelPosition=center;verticalLabelPosition=bottom;verticalAlign=top;fontColor=#FF3333;spacingBottom=0;spacing=-5;fontStyle=1" parent="he0kqgZxXAUqB0J18NEI-1" vertex="1">
                    <mxGeometry x="419" y="643.61" width="50" height="46.39" as="geometry"/>
                </mxCell>
                <mxCell id="0" value="UDR" style="" parent="he0kqgZxXAUqB0J18NEI-0" visible="0"/>
                <mxCell id="2" style="edgeStyle=none;html=1;entryX=0.526;entryY=1.005;entryDx=0;entryDy=0;entryPerimeter=0;dashed=1;strokeColor=#999999;fontFamily=Verdana;fontSize=10;endArrow=none;endFill=0;exitX=1;exitY=0.5;exitDx=0;exitDy=0;" parent="0" edge="1">
                    <mxGeometry relative="1" as="geometry">
                        <mxPoint x="307.6100000000001" y="407.49" as="sourcePoint"/>
                        <mxPoint x="426.472" y="302.885" as="targetPoint"/>
                    </mxGeometry>
                </mxCell>
                <mxCell id="3" style="edgeStyle=none;html=1;entryX=0;entryY=0.5;entryDx=0;entryDy=0;dashed=1;strokeColor=#999999;fontFamily=Verdana;fontSize=10;endArrow=none;endFill=0;exitX=0.54;exitY=1.016;exitDx=0;exitDy=0;exitPerimeter=0;" parent="0" edge="1">
                    <mxGeometry relative="1" as="geometry">
                        <mxPoint x="428.8800000000001" y="304.832" as="sourcePoint"/>
                        <mxPoint x="552" y="414.395" as="targetPoint"/>
                    </mxGeometry>
                </mxCell>
                <mxCell id="4" value="" style="aspect=fixed;html=1;points=[];align=center;image;fontSize=12;image=img/lib/azure2/networking/Route_Tables.svg;dashed=1;labelBackgroundColor=none;strokeColor=default;fontFamily=Verdana;" parent="0" vertex="1">
                    <mxGeometry x="488" y="114" width="28.9" height="28" as="geometry"/>
                </mxCell>
                <mxCell id="5" value="&lt;font face=&quot;Verdana&quot;&gt;&lt;b&gt;az-rt-spoke-to-nva&lt;br&gt;&lt;/b&gt;GW propagation = disabled&lt;br style=&quot;font-size: 10px;&quot;&gt;&lt;span style=&quot;color: rgb(41, 40, 39); text-align: start; background-color: rgb(255, 255, 255); font-size: 10px;&quot;&gt;0.0.0.0/0 -&amp;gt;&amp;nbsp;&lt;/span&gt;&lt;span style=&quot;color: rgb(41, 40, 39); text-align: start; background-color: rgb(255, 255, 255);&quot;&gt;10.0.20.84&lt;br&gt;&lt;/span&gt;&lt;/font&gt;&lt;span style=&quot;color: rgb(41, 40, 39); font-family: Verdana; text-align: start;&quot;&gt;10.0.20.0/27 -&amp;gt; 10.0.20.84&lt;br&gt;&lt;/span&gt;&lt;span style=&quot;color: rgb(41, 40, 39); font-family: Verdana; text-align: start;&quot;&gt;10.0.20.96/27 -&amp;gt; 10.0.20.84&lt;br&gt;&lt;/span&gt;&lt;span style=&quot;color: rgb(41, 40, 39); font-family: Verdana; text-align: start;&quot;&gt;10.0.21.32/27 -&amp;gt; 10.0.20.84&lt;br&gt;&lt;/span&gt;&lt;span style=&quot;color: rgb(41, 40, 39); font-family: Verdana; text-align: start;&quot;&gt;10.0.22.32/27 -&amp;gt; 10.0.20.84&lt;br&gt;&lt;/span&gt;&lt;u&gt;&lt;span style=&quot;border-color: var(--border-color); font-family: Verdana; color: rgb(41, 40, 39); text-align: start;&quot;&gt;10.0.20.100/32 -&amp;gt; 10.0.20.84&lt;br style=&quot;border-color: var(--border-color);&quot;&gt;&lt;/span&gt;&lt;span style=&quot;border-color: var(--border-color); font-family: Verdana; color: rgb(41, 40, 39); text-align: start;&quot;&gt;10.0.20.101/32 -&amp;gt; 10.0.20.84&lt;br style=&quot;border-color: var(--border-color);&quot;&gt;&lt;/span&gt;&lt;span style=&quot;border-color: var(--border-color); font-family: Verdana; color: rgb(41, 40, 39); text-align: start;&quot;&gt;10.0.21.36/32 -&amp;gt; 10.0.20.84&lt;br style=&quot;border-color: var(--border-color);&quot;&gt;&lt;/span&gt;&lt;span style=&quot;border-color: var(--border-color); font-family: Verdana; color: rgb(41, 40, 39); text-align: start;&quot;&gt;10.0.21.37/32 -&amp;gt; 10.0.20.84&lt;br style=&quot;border-color: var(--border-color);&quot;&gt;&lt;/span&gt;&lt;span style=&quot;border-color: var(--border-color); font-family: Verdana; color: rgb(41, 40, 39); text-align: start;&quot;&gt;10.0.22.36/32 -&amp;gt; 10.0.20.84&lt;br style=&quot;border-color: var(--border-color);&quot;&gt;&lt;/span&gt;&lt;span style=&quot;border-color: var(--border-color); font-family: Verdana; color: rgb(41, 40, 39); text-align: start;&quot;&gt;10.0.22.37/32 -&amp;gt; 10.0.20.84&lt;/span&gt;&lt;/u&gt;&lt;span style=&quot;color: rgb(41, 40, 39); font-family: az_ea_font, &amp;quot;Segoe UI&amp;quot;, az_font, system-ui, -apple-system, BlinkMacSystemFont, Roboto, Oxygen, Ubuntu, Cantarell, &amp;quot;Open Sans&amp;quot;, &amp;quot;Helvetica Neue&amp;quot;, sans-serif; text-align: start; background-color: rgb(255, 255, 255); font-size: 10px;&quot;&gt;&lt;br&gt;&lt;/span&gt;" style="text;html=1;align=center;verticalAlign=middle;resizable=0;points=[];autosize=1;strokeColor=default;fillColor=none;fontSize=10;fontStyle=0;dashed=1;" parent="0" vertex="1">
                    <mxGeometry x="336" y="125" width="172" height="177" as="geometry"/>
                </mxCell>
                <mxCell id="6" style="edgeStyle=none;html=1;entryX=1;entryY=0.25;entryDx=0;entryDy=0;dashed=1;strokeColor=#999999;fontFamily=Verdana;fontSize=10;endArrow=none;endFill=0;" parent="0" source="7" edge="1">
                    <mxGeometry relative="1" as="geometry">
                        <mxPoint x="608.01" y="594.75" as="targetPoint"/>
                    </mxGeometry>
                </mxCell>
                <mxCell id="7" value="&lt;font face=&quot;Verdana&quot;&gt;&lt;b&gt;az-rt-hub-to-nva&lt;br&gt;&lt;/b&gt;GW propagation = disabled&lt;br style=&quot;font-size: 10px;&quot;&gt;&lt;/font&gt;&lt;span style=&quot;border-color: var(--border-color); font-family: Verdana; color: rgb(41, 40, 39); text-align: start;&quot;&gt;0.0.0.0/0 -&amp;gt;&amp;nbsp;&lt;/span&gt;&lt;span style=&quot;border-color: var(--border-color); font-family: Verdana; color: rgb(41, 40, 39); text-align: start;&quot;&gt;10.0.20.84&lt;/span&gt;&lt;font face=&quot;Verdana&quot;&gt;&lt;span style=&quot;color: rgb(41, 40, 39); text-align: start; background-color: rgb(255, 255, 255);&quot;&gt;&lt;br&gt;&lt;/span&gt;&lt;span style=&quot;color: rgb(41, 40, 39); text-align: start; background-color: rgb(255, 255, 255);&quot;&gt;10.0.21.0/24 -&amp;gt; 10.0.20.84&lt;br&gt;&lt;/span&gt;&lt;span style=&quot;color: rgb(41, 40, 39); text-align: start; background-color: rgb(255, 255, 255); font-size: 10px;&quot;&gt;10.0.22.0/24 -&amp;gt;&amp;nbsp;&lt;/span&gt;&lt;span style=&quot;color: rgb(41, 40, 39); text-align: start; background-color: rgb(255, 255, 255);&quot;&gt;10.0.20.84&lt;br&gt;&lt;/span&gt;&lt;/font&gt;&lt;span style=&quot;color: rgb(41, 40, 39); font-family: Verdana; text-align: start;&quot;&gt;10.0.20.96/27 -&amp;gt; 10.0.20.84&lt;br&gt;&lt;/span&gt;&lt;span style=&quot;border-color: var(--border-color); font-family: Verdana; color: rgb(41, 40, 39); text-align: start;&quot;&gt;&lt;u&gt;10.0.20.100/32 -&amp;gt; 10.0.20.84&lt;br style=&quot;border-color: var(--border-color);&quot;&gt;&lt;/u&gt;&lt;/span&gt;&lt;span style=&quot;border-color: var(--border-color); font-family: Verdana; color: rgb(41, 40, 39); text-align: start;&quot;&gt;&lt;u&gt;10.0.20.101/32 -&amp;gt; 10.0.20.84&lt;/u&gt;&lt;br style=&quot;border-color: var(--border-color);&quot;&gt;&lt;/span&gt;&lt;u&gt;&lt;span style=&quot;border-color: var(--border-color); font-family: Verdana; color: rgb(41, 40, 39); text-align: start;&quot;&gt;10.0.21.36/32 -&amp;gt; 10.0.20.84&lt;br style=&quot;border-color: var(--border-color);&quot;&gt;&lt;/span&gt;&lt;span style=&quot;border-color: var(--border-color); font-family: Verdana; color: rgb(41, 40, 39); text-align: start;&quot;&gt;10.0.21.37/32 -&amp;gt; 10.0.20.84&lt;br style=&quot;border-color: var(--border-color);&quot;&gt;&lt;/span&gt;&lt;span style=&quot;border-color: var(--border-color); font-family: Verdana; color: rgb(41, 40, 39); text-align: start;&quot;&gt;10.0.22.36/32 -&amp;gt; 10.0.20.84&lt;br style=&quot;border-color: var(--border-color);&quot;&gt;&lt;/span&gt;&lt;span style=&quot;border-color: var(--border-color); font-family: Verdana; color: rgb(41, 40, 39); text-align: start;&quot;&gt;10.0.22.37/32 -&amp;gt; 10.0.20.84&lt;/span&gt;&lt;/u&gt;&lt;span style=&quot;color: rgb(41, 40, 39); font-family: az_ea_font, &amp;quot;Segoe UI&amp;quot;, az_font, system-ui, -apple-system, BlinkMacSystemFont, Roboto, Oxygen, Ubuntu, Cantarell, &amp;quot;Open Sans&amp;quot;, &amp;quot;Helvetica Neue&amp;quot;, sans-serif; text-align: start; background-color: rgb(255, 255, 255); font-size: 10px;&quot;&gt;&lt;br&gt;&lt;/span&gt;" style="text;html=1;align=center;verticalAlign=middle;resizable=0;points=[];autosize=1;strokeColor=default;fillColor=none;fontSize=10;fontStyle=0;dashed=1;" parent="0" vertex="1">
                    <mxGeometry x="654" y="489.19" width="172" height="164" as="geometry"/>
                </mxCell>
                <mxCell id="8" value="" style="aspect=fixed;html=1;points=[];align=center;image;fontSize=12;image=img/lib/azure2/networking/Route_Tables.svg;dashed=1;labelBackgroundColor=none;strokeColor=default;fontFamily=Verdana;" parent="0" vertex="1">
                    <mxGeometry x="806.1" y="482" width="28.9" height="28" as="geometry"/>
                </mxCell>
                <mxCell id="9" style="edgeStyle=none;html=1;entryX=0;entryY=0.5;entryDx=0;entryDy=0;strokeColor=#999999;fontFamily=Verdana;fontSize=10;endArrow=none;endFill=0;exitX=1.007;exitY=0.438;exitDx=0;exitDy=0;exitPerimeter=0;dashed=1;" parent="0" source="10" edge="1">
                    <mxGeometry relative="1" as="geometry">
                        <mxPoint x="269.74" y="688" as="targetPoint"/>
                    </mxGeometry>
                </mxCell>
                <mxCell id="10" value="&lt;font face=&quot;Verdana&quot;&gt;&lt;b&gt;az-rt-gwsubnet-to-nva&lt;br&gt;&lt;/b&gt;GW propagation = enabled&lt;br style=&quot;font-size: 10px;&quot;&gt;&lt;span style=&quot;color: rgb(41, 40, 39); text-align: start; background-color: rgb(255, 255, 255);&quot;&gt;10.0.21.0/24 -&amp;gt; 10.0.20.84&lt;br&gt;&lt;/span&gt;&lt;span style=&quot;color: rgb(41, 40, 39); text-align: start; background-color: rgb(255, 255, 255);&quot;&gt;10.0.22.0/24 -&amp;gt; 10.0.20.84&lt;br&gt;&lt;/span&gt;&lt;/font&gt;&lt;span style=&quot;color: rgb(41, 40, 39); font-family: Verdana; text-align: start;&quot;&gt;10.0.20.0/27 -&amp;gt; 10.0.20.84&lt;br&gt;&lt;/span&gt;&lt;span style=&quot;color: rgb(41, 40, 39); font-family: Verdana; text-align: start;&quot;&gt;10.0.20.96/27 -&amp;gt; 10.0.20.84&lt;br&gt;&lt;/span&gt;&lt;span style=&quot;border-color: var(--border-color); font-family: Verdana; color: rgb(41, 40, 39); text-align: start;&quot;&gt;&lt;u&gt;10.0.20.100/32 -&amp;gt; 10.0.20.84&lt;br style=&quot;border-color: var(--border-color);&quot;&gt;&lt;/u&gt;&lt;/span&gt;&lt;span style=&quot;border-color: var(--border-color); font-family: Verdana; color: rgb(41, 40, 39); text-align: start;&quot;&gt;&lt;u&gt;10.0.20.101/32 -&amp;gt; 10.0.20.84&lt;/u&gt;&lt;br style=&quot;border-color: var(--border-color);&quot;&gt;&lt;/span&gt;&lt;u&gt;&lt;span style=&quot;border-color: var(--border-color); font-family: Verdana; color: rgb(41, 40, 39); text-align: start;&quot;&gt;10.0.21.36/32 -&amp;gt; 10.0.20.84&lt;br style=&quot;border-color: var(--border-color);&quot;&gt;&lt;/span&gt;&lt;span style=&quot;border-color: var(--border-color); font-family: Verdana; color: rgb(41, 40, 39); text-align: start;&quot;&gt;10.0.21.37/32 -&amp;gt; 10.0.20.84&lt;br style=&quot;border-color: var(--border-color);&quot;&gt;&lt;/span&gt;&lt;span style=&quot;border-color: var(--border-color); font-family: Verdana; color: rgb(41, 40, 39); text-align: start;&quot;&gt;10.0.22.36/32 -&amp;gt; 10.0.20.84&lt;br style=&quot;border-color: var(--border-color);&quot;&gt;&lt;/span&gt;&lt;span style=&quot;border-color: var(--border-color); font-family: Verdana; color: rgb(41, 40, 39); text-align: start;&quot;&gt;10.0.22.37/32 -&amp;gt; 10.0.20.84&lt;/span&gt;&lt;/u&gt;&lt;span style=&quot;color: rgb(41, 40, 39); font-family: az_ea_font, &amp;quot;Segoe UI&amp;quot;, az_font, system-ui, -apple-system, BlinkMacSystemFont, Roboto, Oxygen, Ubuntu, Cantarell, &amp;quot;Open Sans&amp;quot;, &amp;quot;Helvetica Neue&amp;quot;, sans-serif; text-align: start; background-color: rgb(255, 255, 255); font-size: 10px;&quot;&gt;&lt;br&gt;&lt;/span&gt;" style="text;html=1;align=center;verticalAlign=middle;resizable=0;points=[];autosize=1;strokeColor=default;fillColor=none;fontSize=10;fontStyle=0;dashed=1;" parent="0" vertex="1">
                    <mxGeometry x="38" y="612" width="172" height="164" as="geometry"/>
                </mxCell>
                <mxCell id="11" value="" style="aspect=fixed;html=1;points=[];align=center;image;fontSize=12;image=img/lib/azure2/networking/Route_Tables.svg;dashed=1;labelBackgroundColor=none;strokeColor=default;fontFamily=Verdana;" parent="0" vertex="1">
                    <mxGeometry x="189" y="603.5" width="28.9" height="28" as="geometry"/>
                </mxCell>
                <mxCell id="12" style="edgeStyle=none;html=1;exitX=1;exitY=1;exitDx=0;exitDy=0;entryX=0;entryY=0.5;entryDx=0;entryDy=0;dashed=1;dashPattern=1 1;fontSize=11;endArrow=none;endFill=0;" parent="0" target="15" edge="1">
                    <mxGeometry relative="1" as="geometry">
                        <mxPoint x="609.26" y="801" as="sourcePoint"/>
                    </mxGeometry>
                </mxCell>
                <mxCell id="13" value="&lt;b style=&quot;font-size: 9px;&quot;&gt;Network Policy = Disabled&lt;/b&gt;" style="text;strokeColor=none;align=center;fillColor=none;html=1;verticalAlign=middle;whiteSpace=wrap;rounded=0;fontSize=9;" parent="0" vertex="1">
                    <mxGeometry x="61.6099999999999" y="432.79" width="164" height="30" as="geometry"/>
                </mxCell>
                <mxCell id="14" value="&lt;b style=&quot;font-size: 9px;&quot;&gt;Network Policy = Disabled&lt;/b&gt;" style="text;strokeColor=none;align=center;fillColor=none;html=1;verticalAlign=middle;whiteSpace=wrap;rounded=0;fontSize=9;" parent="0" vertex="1">
                    <mxGeometry x="642.0999999999999" y="439" width="164" height="30" as="geometry"/>
                </mxCell>
                <mxCell id="15" value="&lt;b style=&quot;font-size: 9px;&quot;&gt;Network Policy = Disabled&lt;/b&gt;" style="text;strokeColor=default;align=center;fillColor=none;html=1;verticalAlign=middle;whiteSpace=wrap;rounded=0;fontSize=9;dashed=1;" parent="0" vertex="1">
                    <mxGeometry x="640.5" y="807" width="134.5" height="30" as="geometry"/>
                </mxCell>
            </root>
        </mxGraphModel>
    </diagram>
    <diagram name="NetworkPolicy-Enabled" id="QJTYta4yJP7eJ28P1nHF">
        <mxGraphModel dx="974" dy="656" grid="0" gridSize="10" guides="1" tooltips="1" connect="1" arrows="1" fold="1" page="0" pageScale="1" pageWidth="850" pageHeight="1100" math="0" shadow="0">
            <root>
                <mxCell id="mILvHSCZfIqw_XFxnMRQ-0"/>
                <mxCell id="mILvHSCZfIqw_XFxnMRQ-1" parent="mILvHSCZfIqw_XFxnMRQ-0"/>
                <mxCell id="eSZq_c5uFComcSUU_6bp-0" value="" style="whiteSpace=wrap;html=1;dashed=1;labelBackgroundColor=none;strokeColor=none;fontFamily=Verdana;fontSize=12;" parent="mILvHSCZfIqw_XFxnMRQ-1" vertex="1">
                    <mxGeometry x="13.62" y="97" width="850" height="1000" as="geometry"/>
                </mxCell>
                <mxCell id="mILvHSCZfIqw_XFxnMRQ-3" value="&lt;font style=&quot;font-size: 12px;&quot;&gt;az-hub-vnet&lt;br&gt;10.0.20.0/24&lt;br&gt;&lt;/font&gt;" style="whiteSpace=wrap;html=1;labelBackgroundColor=none;fontFamily=Verdana;fontSize=15;labelPosition=center;verticalLabelPosition=top;align=center;verticalAlign=bottom;strokeColor=#007FFF;dashed=1;" parent="mILvHSCZfIqw_XFxnMRQ-1" vertex="1">
                    <mxGeometry x="260" y="542" width="357.24" height="290" as="geometry"/>
                </mxCell>
                <mxCell id="mILvHSCZfIqw_XFxnMRQ-4" value="GatewaySubnet&lt;br style=&quot;font-size: 8px;&quot;&gt;10.0.20.32/27" style="whiteSpace=wrap;html=1;labelBackgroundColor=none;fontFamily=Verdana;fillColor=#f5f5f5;fontColor=#333333;strokeColor=none;fontSize=8;labelPosition=center;verticalLabelPosition=top;align=center;verticalAlign=bottom;" parent="mILvHSCZfIqw_XFxnMRQ-1" vertex="1">
                    <mxGeometry x="269.74" y="572" width="103.69" height="232" as="geometry"/>
                </mxCell>
                <mxCell id="mILvHSCZfIqw_XFxnMRQ-5" style="edgeStyle=none;html=1;entryX=0.5;entryY=0;entryDx=0;entryDy=0;strokeColor=#FF8000;fontSize=8;endArrow=none;endFill=0;" parent="mILvHSCZfIqw_XFxnMRQ-1" target="mILvHSCZfIqw_XFxnMRQ-34" edge="1">
                    <mxGeometry relative="1" as="geometry">
                        <mxPoint x="322" y="720" as="sourcePoint"/>
                    </mxGeometry>
                </mxCell>
                <mxCell id="mILvHSCZfIqw_XFxnMRQ-6" value="S2S VPN&lt;br&gt;BGP over IPSec" style="edgeLabel;html=1;align=center;verticalAlign=middle;resizable=0;points=[];fontSize=10;" parent="mILvHSCZfIqw_XFxnMRQ-5" vertex="1" connectable="0">
                    <mxGeometry x="0.3981" y="2" relative="1" as="geometry">
                        <mxPoint as="offset"/>
                    </mxGeometry>
                </mxCell>
                <mxCell id="mILvHSCZfIqw_XFxnMRQ-7" value="az-hub-vpngw&lt;br style=&quot;font-size: 11px;&quot;&gt;" style="aspect=fixed;html=1;points=[];align=center;image;fontSize=11;image=img/lib/azure2/networking/Virtual_Network_Gateways.svg;glass=0;dashed=1;dashPattern=8 8;strokeColor=#E6E6E6;fontColor=#000000;fillColor=#CCCCCC;rounded=0;sketch=1;hachureGap=4;jiggle=2;curveFitting=1;fontFamily=Verdana;labelBackgroundColor=none;" parent="mILvHSCZfIqw_XFxnMRQ-1" vertex="1">
                    <mxGeometry x="307.60982456140357" y="657.2133884116065" width="27.943925233644855" height="37.081588785046726" as="geometry"/>
                </mxCell>
                <mxCell id="mILvHSCZfIqw_XFxnMRQ-8" value="Untrusted&lt;br style=&quot;font-size: 8px;&quot;&gt;10.0.20.64/28" style="whiteSpace=wrap;html=1;labelBackgroundColor=none;fontFamily=Verdana;fillColor=#f5f5f5;fontColor=#333333;strokeColor=none;fontSize=8;labelPosition=center;verticalLabelPosition=top;align=center;verticalAlign=bottom;" parent="mILvHSCZfIqw_XFxnMRQ-1" vertex="1">
                    <mxGeometry x="376" y="572" width="130" height="89" as="geometry"/>
                </mxCell>
                <mxCell id="mILvHSCZfIqw_XFxnMRQ-9" value="Subnet1&lt;br style=&quot;font-size: 8px;&quot;&gt;10.0.20.0/27" style="whiteSpace=wrap;html=1;labelBackgroundColor=none;fontFamily=Verdana;fillColor=#f5f5f5;fontColor=#333333;strokeColor=none;fontSize=8;labelPosition=center;verticalLabelPosition=top;align=center;verticalAlign=bottom;" parent="mILvHSCZfIqw_XFxnMRQ-1" vertex="1">
                    <mxGeometry x="508" y="572" width="100.01" height="91" as="geometry"/>
                </mxCell>
                <mxCell id="mILvHSCZfIqw_XFxnMRQ-10" value="Trusted&lt;br style=&quot;font-size: 8px;&quot;&gt;10.0.20.80/28" style="whiteSpace=wrap;html=1;labelBackgroundColor=none;fontFamily=Verdana;fillColor=#f5f5f5;fontColor=#333333;strokeColor=none;fontSize=8;labelPosition=center;verticalLabelPosition=bottom;align=center;verticalAlign=top;direction=south;" parent="mILvHSCZfIqw_XFxnMRQ-1" vertex="1">
                    <mxGeometry x="376" y="690" width="129" height="111" as="geometry"/>
                </mxCell>
                <mxCell id="mILvHSCZfIqw_XFxnMRQ-11" value="az-hub-opnnva1&#10;&#10;" style="aspect=fixed;points=[];align=center;image;fontSize=11;image=img/lib/azure2/compute/Virtual_Machine.svg;labelBackgroundColor=none;fontFamily=Verdana;fillColor=default;labelPosition=center;verticalLabelPosition=bottom;verticalAlign=top;fontColor=#FF3333;spacingBottom=0;spacing=-5;fontStyle=1" parent="mILvHSCZfIqw_XFxnMRQ-1" vertex="1">
                    <mxGeometry x="419" y="643.61" width="50" height="46.39" as="geometry"/>
                </mxCell>
                <mxCell id="mILvHSCZfIqw_XFxnMRQ-12" style="edgeStyle=none;html=1;strokeColor=#000000;strokeWidth=1;fontFamily=Verdana;fontSize=8;fontColor=#000000;endArrow=none;endFill=0;opacity=30;entryX=0.496;entryY=0.002;entryDx=0;entryDy=0;entryPerimeter=0;dashed=1;dashPattern=1 1;" parent="mILvHSCZfIqw_XFxnMRQ-1" source="mILvHSCZfIqw_XFxnMRQ-13" target="mILvHSCZfIqw_XFxnMRQ-11" edge="1">
                    <mxGeometry relative="1" as="geometry">
                        <mxPoint x="449" y="630" as="targetPoint"/>
                    </mxGeometry>
                </mxCell>
                <mxCell id="mILvHSCZfIqw_XFxnMRQ-13" value="10.0.20.68&lt;br&gt;Untrusted NIC -&amp;gt; Internet" style="aspect=fixed;html=1;points=[];align=center;image;fontSize=8;image=img/lib/azure2/networking/Network_Interfaces.svg;labelBackgroundColor=none;fontFamily=Verdana;fontColor=#000000;fillColor=none;labelPosition=center;verticalLabelPosition=top;verticalAlign=bottom;fontStyle=1;spacing=4;" parent="mILvHSCZfIqw_XFxnMRQ-1" vertex="1">
                    <mxGeometry x="432.38" y="599.81" width="23.24" height="20.5" as="geometry"/>
                </mxCell>
                <mxCell id="mILvHSCZfIqw_XFxnMRQ-14" style="edgeStyle=none;html=1;strokeColor=#000000;fontSize=8;endArrow=none;endFill=0;opacity=30;fontFamily=Verdana;fontColor=#000000;strokeWidth=1;dashed=1;dashPattern=1 1;" parent="mILvHSCZfIqw_XFxnMRQ-1" source="mILvHSCZfIqw_XFxnMRQ-15" target="mILvHSCZfIqw_XFxnMRQ-11" edge="1">
                    <mxGeometry relative="1" as="geometry"/>
                </mxCell>
                <mxCell id="mILvHSCZfIqw_XFxnMRQ-15" value="Trusted-NIC&lt;br&gt;10.0.20.84" style="aspect=fixed;html=1;points=[];align=center;image;fontSize=10;image=img/lib/azure2/networking/Network_Interfaces.svg;labelBackgroundColor=none;fontFamily=Verdana;fontColor=#000000;fillColor=none;labelPosition=center;verticalLabelPosition=bottom;verticalAlign=top;fontStyle=1;spacing=4;" parent="mILvHSCZfIqw_XFxnMRQ-1" vertex="1">
                    <mxGeometry x="432.95" y="723" width="22.67" height="20" as="geometry"/>
                </mxCell>
                <mxCell id="mILvHSCZfIqw_XFxnMRQ-21" value="hubsql" style="aspect=fixed;html=1;points=[];align=center;image;fontSize=12;image=img/lib/azure2/databases/SQL_Server.svg;dashed=1;labelBackgroundColor=none;strokeColor=#0000FF;" parent="mILvHSCZfIqw_XFxnMRQ-1" vertex="1">
                    <mxGeometry x="659.82" y="724.6" width="50" height="50" as="geometry"/>
                </mxCell>
                <mxCell id="mILvHSCZfIqw_XFxnMRQ-22" value="&lt;span style=&quot;font-weight: 400; font-size: 11px;&quot;&gt;az-hub-lxvm&lt;br style=&quot;font-size: 11px;&quot;&gt;10.0.20.4&lt;br style=&quot;font-size: 11px;&quot;&gt;&lt;/span&gt;" style="aspect=fixed;html=1;points=[];align=center;image;fontSize=11;image=img/lib/azure2/compute/Virtual_Machine.svg;labelBackgroundColor=none;fontFamily=Verdana;fillColor=default;fontStyle=1" parent="mILvHSCZfIqw_XFxnMRQ-1" vertex="1">
                    <mxGeometry x="540.0812999999999" y="585.6898865153539" width="34.086598798397866" height="31.616555407209614" as="geometry"/>
                </mxCell>
                <mxCell id="mILvHSCZfIqw_XFxnMRQ-23" style="edgeStyle=none;html=1;entryX=0.306;entryY=0;entryDx=0;entryDy=0;entryPerimeter=0;strokeColor=#007FFF;fontSize=10;endArrow=none;endFill=0;exitX=0.5;exitY=1;exitDx=0;exitDy=0;dashed=1;" parent="mILvHSCZfIqw_XFxnMRQ-1" source="mILvHSCZfIqw_XFxnMRQ-24" target="mILvHSCZfIqw_XFxnMRQ-3" edge="1">
                    <mxGeometry relative="1" as="geometry"/>
                </mxCell>
                <mxCell id="mILvHSCZfIqw_XFxnMRQ-24" value="az-spk1-vnet&lt;br style=&quot;font-size: 12px;&quot;&gt;10.0.21.0/24" style="whiteSpace=wrap;html=1;fillColor=none;strokeColor=#007FFF;dashed=1;labelBackgroundColor=none;fontFamily=Verdana;fontSize=12;labelPosition=center;verticalLabelPosition=top;align=right;verticalAlign=bottom;flipH=0;flipV=0;" parent="mILvHSCZfIqw_XFxnMRQ-1" vertex="1">
                    <mxGeometry x="65" y="334" width="254" height="129.19" as="geometry"/>
                </mxCell>
                <mxCell id="mILvHSCZfIqw_XFxnMRQ-25" value="" style="aspect=fixed;html=1;points=[];align=center;image;fontSize=12;image=img/lib/azure2/networking/Virtual_Networks.svg;dashed=1;labelBackgroundColor=none;fontFamily=Verdana;fillColor=default;flipH=0;flipV=0;" parent="mILvHSCZfIqw_XFxnMRQ-1" vertex="1">
                    <mxGeometry x="293" y="350" width="20.1" height="12" as="geometry"/>
                </mxCell>
                <mxCell id="mILvHSCZfIqw_XFxnMRQ-26" style="edgeStyle=none;html=1;entryX=0.526;entryY=1.005;entryDx=0;entryDy=0;entryPerimeter=0;dashed=1;strokeColor=#999999;fontFamily=Verdana;fontSize=10;endArrow=none;endFill=0;exitX=1;exitY=0.5;exitDx=0;exitDy=0;" parent="mILvHSCZfIqw_XFxnMRQ-1" source="mILvHSCZfIqw_XFxnMRQ-27" target="mILvHSCZfIqw_XFxnMRQ-53" edge="1">
                    <mxGeometry relative="1" as="geometry">
                        <mxPoint x="425" y="414" as="sourcePoint"/>
                    </mxGeometry>
                </mxCell>
                <mxCell id="mILvHSCZfIqw_XFxnMRQ-27" value="Subnet1&lt;br&gt;10.0.21.0/27" style="whiteSpace=wrap;html=1;labelBackgroundColor=none;fontFamily=Verdana;fillColor=#f5f5f5;fontColor=#333333;strokeColor=none;fontSize=8;labelPosition=center;verticalLabelPosition=top;align=left;verticalAlign=bottom;flipH=0;flipV=0;" parent="mILvHSCZfIqw_XFxnMRQ-1" vertex="1">
                    <mxGeometry x="231.10000000000002" y="361.02" width="82" height="98.98" as="geometry"/>
                </mxCell>
                <mxCell id="mILvHSCZfIqw_XFxnMRQ-28" value="az-spk1-lxvm&lt;br style=&quot;font-size: 10px;&quot;&gt;10.0.21.4" style="aspect=fixed;html=1;points=[];align=center;image;fontSize=10;image=img/lib/azure2/compute/Virtual_Machine.svg;labelBackgroundColor=none;fontFamily=Verdana;fillColor=default;flipH=0;flipV=0;" parent="mILvHSCZfIqw_XFxnMRQ-1" vertex="1">
                    <mxGeometry x="256.10130000000004" y="377.2698865153538" width="34.086598798397866" height="31.616555407209614" as="geometry"/>
                </mxCell>
                <mxCell id="mILvHSCZfIqw_XFxnMRQ-29" value="az-spk2-vnet&lt;br style=&quot;font-size: 12px;&quot;&gt;10.0.22.0/24" style="whiteSpace=wrap;html=1;fillColor=none;strokeColor=#007FFF;dashed=1;labelBackgroundColor=none;fontFamily=Verdana;fontSize=12;labelPosition=center;verticalLabelPosition=top;align=left;verticalAlign=bottom;" parent="mILvHSCZfIqw_XFxnMRQ-1" vertex="1">
                    <mxGeometry x="543" y="338" width="266" height="129" as="geometry"/>
                </mxCell>
                <mxCell id="mILvHSCZfIqw_XFxnMRQ-30" value="" style="aspect=fixed;html=1;points=[];align=center;image;fontSize=12;image=img/lib/azure2/networking/Virtual_Networks.svg;dashed=1;labelBackgroundColor=none;fontFamily=Verdana;fillColor=default;" parent="mILvHSCZfIqw_XFxnMRQ-1" vertex="1">
                    <mxGeometry x="786" y="352.19" width="20.1" height="12" as="geometry"/>
                </mxCell>
                <mxCell id="mILvHSCZfIqw_XFxnMRQ-31" style="edgeStyle=none;html=1;entryX=0.75;entryY=0;entryDx=0;entryDy=0;strokeColor=#007FFF;fontSize=10;endArrow=none;endFill=0;exitX=0.5;exitY=1;exitDx=0;exitDy=0;dashed=1;" parent="mILvHSCZfIqw_XFxnMRQ-1" source="mILvHSCZfIqw_XFxnMRQ-29" target="mILvHSCZfIqw_XFxnMRQ-3" edge="1">
                    <mxGeometry relative="1" as="geometry"/>
                </mxCell>
                <mxCell id="mILvHSCZfIqw_XFxnMRQ-32" value="Subnet1&lt;br&gt;10.0.22.0/27&lt;br&gt;" style="whiteSpace=wrap;html=1;labelBackgroundColor=none;fontFamily=Verdana;fillColor=#f5f5f5;fontColor=#333333;strokeColor=none;fontSize=8;labelPosition=center;verticalLabelPosition=top;align=left;verticalAlign=bottom;" parent="mILvHSCZfIqw_XFxnMRQ-1" vertex="1">
                    <mxGeometry x="552" y="366" width="86" height="96.79" as="geometry"/>
                </mxCell>
                <mxCell id="mILvHSCZfIqw_XFxnMRQ-33" value="az-spk2-lxvm&lt;br style=&quot;font-size: 10px;&quot;&gt;10.0.22.4" style="aspect=fixed;html=1;points=[];align=center;image;fontSize=10;image=img/lib/azure2/compute/Virtual_Machine.svg;labelBackgroundColor=none;fontFamily=Verdana;fillColor=default;" parent="mILvHSCZfIqw_XFxnMRQ-1" vertex="1">
                    <mxGeometry x="579.0013" y="376.2498865153538" width="34.086598798397866" height="31.616555407209614" as="geometry"/>
                </mxCell>
                <mxCell id="mILvHSCZfIqw_XFxnMRQ-34" value="On-premies&lt;br style=&quot;font-size: 11px;&quot;&gt;192.168.100.0/24&lt;br style=&quot;font-size: 11px;&quot;&gt;&lt;br style=&quot;font-size: 11px;&quot;&gt;onprem-lxvm &lt;br style=&quot;font-size: 11px;&quot;&gt;192.168.100.4" style="whiteSpace=wrap;html=1;fillColor=#f5f5f5;strokeColor=#666666;dashed=1;labelBackgroundColor=none;gradientColor=#b3b3b3;fontStyle=1;fontSize=11;" parent="mILvHSCZfIqw_XFxnMRQ-1" vertex="1">
                    <mxGeometry x="228.99999999999994" y="958" width="190" height="120" as="geometry"/>
                </mxCell>
                <mxCell id="mILvHSCZfIqw_XFxnMRQ-35" style="edgeStyle=none;html=1;entryX=0.5;entryY=1;entryDx=0;entryDy=0;entryPerimeter=0;strokeColor=#999999;fontFamily=Verdana;fontSize=12;endArrow=none;endFill=0;dashed=1;" parent="mILvHSCZfIqw_XFxnMRQ-1" source="mILvHSCZfIqw_XFxnMRQ-36" target="mILvHSCZfIqw_XFxnMRQ-46" edge="1">
                    <mxGeometry relative="1" as="geometry"/>
                </mxCell>
                <mxCell id="mILvHSCZfIqw_XFxnMRQ-37" style="edgeStyle=none;html=1;dashed=1;strokeColor=#999999;fontFamily=Verdana;fontSize=12;endArrow=none;endFill=0;" parent="mILvHSCZfIqw_XFxnMRQ-1" source="mILvHSCZfIqw_XFxnMRQ-38" target="mILvHSCZfIqw_XFxnMRQ-47" edge="1">
                    <mxGeometry relative="1" as="geometry"/>
                </mxCell>
                <mxCell id="mILvHSCZfIqw_XFxnMRQ-39" value="" style="aspect=fixed;html=1;points=[];align=center;image;fontSize=12;image=img/lib/azure2/networking/Virtual_Networks.svg;dashed=1;labelBackgroundColor=none;fontFamily=Verdana;fillColor=default;" parent="mILvHSCZfIqw_XFxnMRQ-1" vertex="1">
                    <mxGeometry x="597.14" y="542" width="20.1" height="12" as="geometry"/>
                </mxCell>
                <mxCell id="mILvHSCZfIqw_XFxnMRQ-42" style="edgeStyle=none;html=1;entryX=0;entryY=0.5;entryDx=0;entryDy=0;strokeColor=#999999;fontFamily=Verdana;fontSize=10;endArrow=none;endFill=0;exitX=1.007;exitY=0.438;exitDx=0;exitDy=0;exitPerimeter=0;dashed=1;" parent="mILvHSCZfIqw_XFxnMRQ-1" source="mILvHSCZfIqw_XFxnMRQ-44" target="mILvHSCZfIqw_XFxnMRQ-4" edge="1">
                    <mxGeometry relative="1" as="geometry"/>
                </mxCell>
                <mxCell id="mILvHSCZfIqw_XFxnMRQ-46" value="spk1stg" style="verticalLabelPosition=top;html=1;verticalAlign=bottom;align=center;strokeColor=none;fillColor=#00BEF2;shape=mxgraph.azure.storage;pointerEvents=1;labelBackgroundColor=none;labelPosition=center;flipH=0;flipV=0;" parent="mILvHSCZfIqw_XFxnMRQ-1" vertex="1">
                    <mxGeometry x="90.08999999999999" y="259.99999999999994" width="50" height="40" as="geometry"/>
                </mxCell>
                <mxCell id="mILvHSCZfIqw_XFxnMRQ-47" value="spk1sql" style="aspect=fixed;html=1;points=[];align=center;image;fontSize=12;image=img/lib/azure2/databases/SQL_Server.svg;dashed=1;labelBackgroundColor=none;strokeColor=#0000FF;labelPosition=center;verticalLabelPosition=top;verticalAlign=bottom;flipH=0;flipV=0;" parent="mILvHSCZfIqw_XFxnMRQ-1" vertex="1">
                    <mxGeometry x="160.08999999999997" y="255" width="50" height="50" as="geometry"/>
                </mxCell>
                <mxCell id="mILvHSCZfIqw_XFxnMRQ-48" style="edgeStyle=none;html=1;dashed=1;strokeColor=#999999;fontFamily=Verdana;fontSize=12;endArrow=none;endFill=0;" parent="mILvHSCZfIqw_XFxnMRQ-1" source="mILvHSCZfIqw_XFxnMRQ-49" target="mILvHSCZfIqw_XFxnMRQ-40" edge="1">
                    <mxGeometry relative="1" as="geometry"/>
                </mxCell>
                <mxCell id="mILvHSCZfIqw_XFxnMRQ-49" value="spk2stg" style="verticalLabelPosition=top;html=1;verticalAlign=bottom;align=center;strokeColor=none;fillColor=#00BEF2;shape=mxgraph.azure.storage;pointerEvents=1;labelBackgroundColor=none;labelPosition=center;" parent="mILvHSCZfIqw_XFxnMRQ-1" vertex="1">
                    <mxGeometry x="650.9100000000001" y="249.99999999999994" width="50" height="40" as="geometry"/>
                </mxCell>
                <mxCell id="mILvHSCZfIqw_XFxnMRQ-50" style="edgeStyle=none;html=1;dashed=1;strokeColor=#999999;fontFamily=Verdana;fontSize=12;endArrow=none;endFill=0;" parent="mILvHSCZfIqw_XFxnMRQ-1" source="mILvHSCZfIqw_XFxnMRQ-51" target="mILvHSCZfIqw_XFxnMRQ-41" edge="1">
                    <mxGeometry relative="1" as="geometry"/>
                </mxCell>
                <mxCell id="mILvHSCZfIqw_XFxnMRQ-51" value="spk2spg" style="aspect=fixed;html=1;points=[];align=center;image;fontSize=12;image=img/lib/azure2/databases/SQL_Server.svg;dashed=1;labelBackgroundColor=none;strokeColor=#0000FF;labelPosition=center;verticalLabelPosition=top;verticalAlign=bottom;" parent="mILvHSCZfIqw_XFxnMRQ-1" vertex="1">
                    <mxGeometry x="730.09" y="250" width="50" height="50" as="geometry"/>
                </mxCell>
                <mxCell id="mILvHSCZfIqw_XFxnMRQ-52" value="" style="group" parent="mILvHSCZfIqw_XFxnMRQ-1" vertex="1" connectable="0">
                    <mxGeometry x="343.8" y="120" width="173.49" height="150.19" as="geometry"/>
                </mxCell>
                <mxCell id="mILvHSCZfIqw_XFxnMRQ-53" value="&lt;font face=&quot;Verdana&quot;&gt;&lt;b&gt;az-rt-spoke-to-nva&lt;br&gt;&lt;/b&gt;GW propagation = disabled&lt;br style=&quot;font-size: 10px;&quot;&gt;&lt;span style=&quot;color: rgb(41, 40, 39); text-align: start; background-color: rgb(255, 255, 255); font-size: 10px;&quot;&gt;0.0.0.0/0 -&amp;gt;&amp;nbsp;&lt;/span&gt;&lt;span style=&quot;color: rgb(41, 40, 39); text-align: start; background-color: rgb(255, 255, 255);&quot;&gt;10.0.20.84&lt;br&gt;&lt;/span&gt;&lt;/font&gt;&lt;span style=&quot;color: rgb(41, 40, 39); font-family: Verdana; text-align: start;&quot;&gt;10.0.20.0/27 -&amp;gt; 10.0.20.84&lt;br&gt;&lt;/span&gt;&lt;span style=&quot;color: rgb(41, 40, 39); font-family: Verdana; text-align: start;&quot;&gt;10.0.20.96/27 -&amp;gt; 10.0.20.84&lt;br&gt;&lt;/span&gt;&lt;span style=&quot;color: rgb(41, 40, 39); font-family: Verdana; text-align: start;&quot;&gt;10.0.21.32/27 -&amp;gt; 10.0.20.84&lt;br&gt;&lt;/span&gt;&lt;span style=&quot;color: rgb(41, 40, 39); font-family: Verdana; text-align: start;&quot;&gt;10.0.22.32/27 -&amp;gt; 10.0.20.84&lt;/span&gt;&lt;span style=&quot;color: rgb(41, 40, 39); font-family: az_ea_font, &amp;quot;Segoe UI&amp;quot;, az_font, system-ui, -apple-system, BlinkMacSystemFont, Roboto, Oxygen, Ubuntu, Cantarell, &amp;quot;Open Sans&amp;quot;, &amp;quot;Helvetica Neue&amp;quot;, sans-serif; text-align: start; background-color: rgb(255, 255, 255); font-size: 10px;&quot;&gt;&lt;br&gt;&lt;/span&gt;" style="text;html=1;align=center;verticalAlign=middle;resizable=0;points=[];autosize=1;strokeColor=default;fillColor=none;fontSize=10;fontStyle=0;dashed=1;" parent="mILvHSCZfIqw_XFxnMRQ-52" vertex="1">
                    <mxGeometry x="-2" y="30.189999999999998" width="166" height="101" as="geometry"/>
                </mxCell>
                <mxCell id="mILvHSCZfIqw_XFxnMRQ-54" value="" style="aspect=fixed;html=1;points=[];align=center;image;fontSize=12;image=img/lib/azure2/networking/Route_Tables.svg;dashed=1;labelBackgroundColor=none;strokeColor=default;fontFamily=Verdana;" parent="mILvHSCZfIqw_XFxnMRQ-52" vertex="1">
                    <mxGeometry x="144.59" width="28.9" height="28" as="geometry"/>
                </mxCell>
                <mxCell id="mILvHSCZfIqw_XFxnMRQ-55" style="edgeStyle=none;html=1;entryX=0;entryY=0.5;entryDx=0;entryDy=0;dashed=1;strokeColor=#999999;fontFamily=Verdana;fontSize=10;endArrow=none;endFill=0;exitX=0.54;exitY=1.016;exitDx=0;exitDy=0;exitPerimeter=0;" parent="mILvHSCZfIqw_XFxnMRQ-1" source="mILvHSCZfIqw_XFxnMRQ-53" target="mILvHSCZfIqw_XFxnMRQ-32" edge="1">
                    <mxGeometry relative="1" as="geometry"/>
                </mxCell>
                <mxCell id="mILvHSCZfIqw_XFxnMRQ-56" value="" style="group" parent="mILvHSCZfIqw_XFxnMRQ-1" vertex="1" connectable="0">
                    <mxGeometry x="659" y="490" width="173.49" height="150.19" as="geometry"/>
                </mxCell>
                <mxCell id="mILvHSCZfIqw_XFxnMRQ-57" value="&lt;font face=&quot;Verdana&quot;&gt;&lt;b&gt;az-rt-hub-to-nva&lt;br&gt;&lt;/b&gt;GW propagation = disabled&lt;br style=&quot;font-size: 10px;&quot;&gt;&lt;/font&gt;&lt;span style=&quot;border-color: var(--border-color); font-family: Verdana; color: rgb(41, 40, 39); text-align: start;&quot;&gt;0.0.0.0/0 -&amp;gt;&amp;nbsp;&lt;/span&gt;&lt;span style=&quot;border-color: var(--border-color); font-family: Verdana; color: rgb(41, 40, 39); text-align: start;&quot;&gt;10.0.20.84&lt;/span&gt;&lt;font face=&quot;Verdana&quot;&gt;&lt;span style=&quot;color: rgb(41, 40, 39); text-align: start; background-color: rgb(255, 255, 255);&quot;&gt;&lt;br&gt;&lt;/span&gt;&lt;span style=&quot;color: rgb(41, 40, 39); text-align: start; background-color: rgb(255, 255, 255);&quot;&gt;10.0.21.0/24 -&amp;gt; 10.0.20.84&lt;br&gt;&lt;/span&gt;&lt;span style=&quot;color: rgb(41, 40, 39); text-align: start; background-color: rgb(255, 255, 255); font-size: 10px;&quot;&gt;10.0.22.0/24 -&amp;gt;&amp;nbsp;&lt;/span&gt;&lt;span style=&quot;color: rgb(41, 40, 39); text-align: start; background-color: rgb(255, 255, 255);&quot;&gt;10.0.20.84&lt;br&gt;&lt;/span&gt;&lt;/font&gt;&lt;span style=&quot;color: rgb(41, 40, 39); font-family: Verdana; text-align: start;&quot;&gt;10.0.20.96/27 -&amp;gt; 10.0.20.84&lt;/span&gt;&lt;span style=&quot;color: rgb(41, 40, 39); font-family: az_ea_font, &amp;quot;Segoe UI&amp;quot;, az_font, system-ui, -apple-system, BlinkMacSystemFont, Roboto, Oxygen, Ubuntu, Cantarell, &amp;quot;Open Sans&amp;quot;, &amp;quot;Helvetica Neue&amp;quot;, sans-serif; text-align: start; background-color: rgb(255, 255, 255); font-size: 10px;&quot;&gt;&lt;br&gt;&lt;/span&gt;" style="text;html=1;align=center;verticalAlign=middle;resizable=0;points=[];autosize=1;strokeColor=default;fillColor=none;fontSize=10;fontStyle=0;dashed=1;" parent="mILvHSCZfIqw_XFxnMRQ-56" vertex="1">
                    <mxGeometry x="-2" y="37.19" width="166" height="88" as="geometry"/>
                </mxCell>
                <mxCell id="mILvHSCZfIqw_XFxnMRQ-58" value="" style="aspect=fixed;html=1;points=[];align=center;image;fontSize=12;image=img/lib/azure2/networking/Route_Tables.svg;dashed=1;labelBackgroundColor=none;strokeColor=default;fontFamily=Verdana;" parent="mILvHSCZfIqw_XFxnMRQ-56" vertex="1">
                    <mxGeometry x="144.59" width="28.9" height="28" as="geometry"/>
                </mxCell>
                <mxCell id="Kr7Da30h20GA-e7oO0GJ-0" value="PESubnet&lt;br style=&quot;font-size: 9px;&quot;&gt;10.0.21.32/27" style="whiteSpace=wrap;html=1;labelBackgroundColor=none;fontFamily=Verdana;fillColor=#f5f5f5;fontColor=#333333;strokeColor=none;fontSize=9;labelPosition=center;verticalLabelPosition=top;align=center;verticalAlign=bottom;fontStyle=1;flipH=0;flipV=0;" parent="mILvHSCZfIqw_XFxnMRQ-1" vertex="1">
                    <mxGeometry x="73" y="362" width="154" height="98" as="geometry"/>
                </mxCell>
                <mxCell id="mILvHSCZfIqw_XFxnMRQ-59" style="edgeStyle=none;html=1;entryX=1;entryY=0.25;entryDx=0;entryDy=0;dashed=1;strokeColor=#999999;fontFamily=Verdana;fontSize=10;endArrow=none;endFill=0;" parent="mILvHSCZfIqw_XFxnMRQ-1" source="mILvHSCZfIqw_XFxnMRQ-57" target="mILvHSCZfIqw_XFxnMRQ-9" edge="1">
                    <mxGeometry relative="1" as="geometry"/>
                </mxCell>
                <mxCell id="mILvHSCZfIqw_XFxnMRQ-44" value="&lt;font face=&quot;Verdana&quot;&gt;&lt;b&gt;az-rt-gwsubnet-to-nva&lt;br&gt;&lt;/b&gt;GW propagation = enabled&lt;br style=&quot;font-size: 10px;&quot;&gt;&lt;span style=&quot;color: rgb(41, 40, 39); text-align: start; background-color: rgb(255, 255, 255);&quot;&gt;10.0.21.0/24 -&amp;gt; 10.0.20.84&lt;br&gt;&lt;/span&gt;&lt;span style=&quot;color: rgb(41, 40, 39); text-align: start; background-color: rgb(255, 255, 255);&quot;&gt;10.0.22.0/24 -&amp;gt; 10.0.20.84&lt;br&gt;&lt;/span&gt;&lt;/font&gt;&lt;span style=&quot;color: rgb(41, 40, 39); font-family: Verdana; text-align: start;&quot;&gt;10.0.20.0/27 -&amp;gt; 10.0.20.84&lt;br&gt;&lt;/span&gt;&lt;span style=&quot;color: rgb(41, 40, 39); font-family: Verdana; text-align: start;&quot;&gt;10.0.20.96/27 -&amp;gt; 10.0.20.84&lt;/span&gt;&lt;span style=&quot;color: rgb(41, 40, 39); font-family: az_ea_font, &amp;quot;Segoe UI&amp;quot;, az_font, system-ui, -apple-system, BlinkMacSystemFont, Roboto, Oxygen, Ubuntu, Cantarell, &amp;quot;Open Sans&amp;quot;, &amp;quot;Helvetica Neue&amp;quot;, sans-serif; text-align: start; background-color: rgb(255, 255, 255); font-size: 10px;&quot;&gt;&lt;br&gt;&lt;/span&gt;" style="text;html=1;align=center;verticalAlign=middle;resizable=0;points=[];autosize=1;strokeColor=default;fillColor=none;fontSize=10;fontStyle=0;dashed=1;" parent="mILvHSCZfIqw_XFxnMRQ-1" vertex="1">
                    <mxGeometry x="41" y="650" width="166" height="88" as="geometry"/>
                </mxCell>
                <mxCell id="mILvHSCZfIqw_XFxnMRQ-45" value="" style="aspect=fixed;html=1;points=[];align=center;image;fontSize=12;image=img/lib/azure2/networking/Route_Tables.svg;dashed=1;labelBackgroundColor=none;strokeColor=default;fontFamily=Verdana;" parent="mILvHSCZfIqw_XFxnMRQ-1" vertex="1">
                    <mxGeometry x="177.55" y="629.2099999999999" width="28.9" height="28" as="geometry"/>
                </mxCell>
                <mxCell id="mILvHSCZfIqw_XFxnMRQ-36" value="spk1stgpe&lt;br style=&quot;font-size: 11px;&quot;&gt;10.0.21.36" style="aspect=fixed;html=1;points=[];align=center;image;fontSize=11;image=img/lib/azure2/networking/Private_Endpoint.svg;labelBackgroundColor=none;flipH=0;flipV=0;fontStyle=1" parent="mILvHSCZfIqw_XFxnMRQ-1" vertex="1">
                    <mxGeometry x="98.99999999999999" y="376.24999999999994" width="32.18" height="29.5" as="geometry"/>
                </mxCell>
                <mxCell id="mILvHSCZfIqw_XFxnMRQ-38" value="spk1sqlpe&lt;br style=&quot;font-size: 11px;&quot;&gt;10.0.21.37" style="aspect=fixed;html=1;points=[];align=center;image;fontSize=11;image=img/lib/azure2/networking/Private_Endpoint.svg;labelBackgroundColor=none;flipH=0;flipV=0;fontStyle=1" parent="mILvHSCZfIqw_XFxnMRQ-1" vertex="1">
                    <mxGeometry x="169.00000000000003" y="376.24999999999994" width="32.18" height="29.5" as="geometry"/>
                </mxCell>
                <mxCell id="Kr7Da30h20GA-e7oO0GJ-2" value="PESubnet&lt;br style=&quot;font-size: 9px;&quot;&gt;10.0.22.32/27" style="whiteSpace=wrap;html=1;labelBackgroundColor=none;fontFamily=Verdana;fillColor=#f5f5f5;fontColor=#333333;strokeColor=none;fontSize=9;labelPosition=center;verticalLabelPosition=top;align=center;verticalAlign=bottom;fontStyle=1" parent="mILvHSCZfIqw_XFxnMRQ-1" vertex="1">
                    <mxGeometry x="642" y="366" width="161" height="96.79" as="geometry"/>
                </mxCell>
                <mxCell id="mILvHSCZfIqw_XFxnMRQ-40" value="spk2stgpe&lt;br style=&quot;font-size: 11px;&quot;&gt;10.0.22.36" style="aspect=fixed;html=1;points=[];align=center;image;fontSize=11;image=img/lib/azure2/networking/Private_Endpoint.svg;labelBackgroundColor=none;fontStyle=1" parent="mILvHSCZfIqw_XFxnMRQ-1" vertex="1">
                    <mxGeometry x="659.8199999999999" y="378.36999999999995" width="32.18" height="29.5" as="geometry"/>
                </mxCell>
                <mxCell id="mILvHSCZfIqw_XFxnMRQ-41" value="spk2sqlpe&lt;br style=&quot;font-size: 11px;&quot;&gt;10.0.22.6" style="aspect=fixed;html=1;points=[];align=center;image;fontSize=11;image=img/lib/azure2/networking/Private_Endpoint.svg;labelBackgroundColor=none;fontStyle=1" parent="mILvHSCZfIqw_XFxnMRQ-1" vertex="1">
                    <mxGeometry x="739" y="378.36999999999995" width="32.18" height="29.5" as="geometry"/>
                </mxCell>
                <mxCell id="Kr7Da30h20GA-e7oO0GJ-3" value="PESubnet&lt;br style=&quot;font-size: 9px;&quot;&gt;10.0.100.96/27" style="whiteSpace=wrap;html=1;labelBackgroundColor=none;fontFamily=Verdana;fillColor=#f5f5f5;fontColor=#333333;strokeColor=none;fontSize=9;labelPosition=center;verticalLabelPosition=bottom;align=center;verticalAlign=top;fontStyle=1" parent="mILvHSCZfIqw_XFxnMRQ-1" vertex="1">
                    <mxGeometry x="508" y="665" width="101.26" height="136" as="geometry"/>
                </mxCell>
                <mxCell id="mILvHSCZfIqw_XFxnMRQ-17" value="hubstgpe&lt;br style=&quot;font-size: 11px;&quot;&gt;10.0.20.100" style="aspect=fixed;html=1;points=[];align=center;image;fontSize=11;image=img/lib/azure2/networking/Private_Endpoint.svg;labelBackgroundColor=none;fontStyle=1" parent="mILvHSCZfIqw_XFxnMRQ-1" vertex="1">
                    <mxGeometry x="543.91" y="670" width="32.18" height="29.5" as="geometry"/>
                </mxCell>
                <mxCell id="mILvHSCZfIqw_XFxnMRQ-18" value="hubsqlpe&lt;br style=&quot;font-size: 11px;&quot;&gt;10.0.20.101" style="aspect=fixed;html=1;points=[];align=center;image;fontSize=11;image=img/lib/azure2/networking/Private_Endpoint.svg;labelBackgroundColor=none;fontStyle=1" parent="mILvHSCZfIqw_XFxnMRQ-1" vertex="1">
                    <mxGeometry x="541.99" y="734.85" width="32.18" height="29.5" as="geometry"/>
                </mxCell>
                <mxCell id="mILvHSCZfIqw_XFxnMRQ-20" style="edgeStyle=none;html=1;dashed=1;endArrow=none;endFill=0;opacity=50;" parent="mILvHSCZfIqw_XFxnMRQ-1" source="mILvHSCZfIqw_XFxnMRQ-21" target="mILvHSCZfIqw_XFxnMRQ-18" edge="1">
                    <mxGeometry relative="1" as="geometry"/>
                </mxCell>
                <mxCell id="mILvHSCZfIqw_XFxnMRQ-19" value="hubstg" style="verticalLabelPosition=bottom;html=1;verticalAlign=top;align=center;strokeColor=none;fillColor=#00BEF2;shape=mxgraph.azure.storage;pointerEvents=1;labelBackgroundColor=none;" parent="mILvHSCZfIqw_XFxnMRQ-1" vertex="1">
                    <mxGeometry x="659" y="664.75" width="50" height="40" as="geometry"/>
                </mxCell>
                <mxCell id="mILvHSCZfIqw_XFxnMRQ-16" style="edgeStyle=none;html=1;entryX=0;entryY=0.5;entryDx=0;entryDy=0;entryPerimeter=0;dashed=1;endArrow=none;endFill=0;opacity=50;" parent="mILvHSCZfIqw_XFxnMRQ-1" source="mILvHSCZfIqw_XFxnMRQ-17" target="mILvHSCZfIqw_XFxnMRQ-19" edge="1">
                    <mxGeometry relative="1" as="geometry"/>
                </mxCell>
                <object label="NP-Enabled" id="V8Fx5n5vsrKCG_Kk7erY-0">
                    <mxCell style="locked=1;" parent="mILvHSCZfIqw_XFxnMRQ-0"/>
                </object>
                <mxCell id="V8Fx5n5vsrKCG_Kk7erY-1" value="&lt;b style=&quot;font-size: 9px;&quot;&gt;Network Policy = Enabled&lt;/b&gt;" style="text;strokeColor=none;align=center;fillColor=none;html=1;verticalAlign=middle;whiteSpace=wrap;rounded=0;fontSize=9;" parent="V8Fx5n5vsrKCG_Kk7erY-0" vertex="1">
                    <mxGeometry x="67.9999999999999" y="432.79" width="164" height="30" as="geometry"/>
                </mxCell>
                <mxCell id="V8Fx5n5vsrKCG_Kk7erY-2" value="&lt;b style=&quot;font-size: 9px;&quot;&gt;Network Policy = Enabled&lt;/b&gt;" style="text;strokeColor=none;align=center;fillColor=none;html=1;verticalAlign=middle;whiteSpace=wrap;rounded=0;fontSize=9;" parent="V8Fx5n5vsrKCG_Kk7erY-0" vertex="1">
                    <mxGeometry x="635.9999999999999" y="437" width="164" height="30" as="geometry"/>
                </mxCell>
                <mxCell id="V8Fx5n5vsrKCG_Kk7erY-3" style="edgeStyle=none;html=1;entryX=0.947;entryY=0.997;entryDx=0;entryDy=0;entryPerimeter=0;dashed=1;dashPattern=1 1;fontSize=9;endArrow=none;endFill=0;" parent="V8Fx5n5vsrKCG_Kk7erY-0" source="V8Fx5n5vsrKCG_Kk7erY-4" edge="1">
                    <mxGeometry relative="1" as="geometry">
                        <mxPoint x="603.8932199999999" y="800.5920000000001" as="targetPoint"/>
                    </mxGeometry>
                </mxCell>
                <mxCell id="V8Fx5n5vsrKCG_Kk7erY-4" value="&lt;b style=&quot;font-size: 9px;&quot;&gt;Network Policy = Enabled&lt;/b&gt;" style="text;strokeColor=default;align=center;fillColor=none;html=1;verticalAlign=middle;whiteSpace=wrap;rounded=0;fontSize=9;dashed=1;" parent="V8Fx5n5vsrKCG_Kk7erY-0" vertex="1">
                    <mxGeometry x="640.5" y="807" width="134.5" height="30" as="geometry"/>
                </mxCell>
            </root>
        </mxGraphModel>
    </diagram>
    <diagram id="zOX7VpMLd-8lQlo3Ocq1" name="SNAT-Requirement">
        <mxGraphModel dx="937" dy="656" grid="0" gridSize="10" guides="1" tooltips="1" connect="1" arrows="1" fold="1" page="1" pageScale="1" pageWidth="850" pageHeight="1100" math="0" shadow="0">
            <root>
                <mxCell id="0"/>
                <mxCell id="1" parent="0"/>
                <mxCell id="4ni6N4c9mznvYzL-rEoo-1" value="" style="shape=table;startSize=0;container=1;collapsible=0;childLayout=tableLayout;strokeColor=default;fontSize=12;fillColor=default;" parent="1" vertex="1">
                    <mxGeometry x="150" y="210" width="536.099853515625" height="320" as="geometry"/>
                </mxCell>
                <mxCell id="4ni6N4c9mznvYzL-rEoo-2" value="" style="shape=tableRow;horizontal=0;startSize=0;swimlaneHead=0;swimlaneBody=0;top=0;left=0;bottom=0;right=0;collapsible=0;dropTarget=0;fillColor=none;points=[[0,0.5],[1,0.5]];portConstraint=eastwest;dashed=1;dashPattern=8 8;strokeColor=default;fontSize=12;" parent="4ni6N4c9mznvYzL-rEoo-1" vertex="1">
                    <mxGeometry width="536.099853515625" height="62" as="geometry"/>
                </mxCell>
                <mxCell id="4ni6N4c9mznvYzL-rEoo-3" value="Client VM Location" style="shape=partialRectangle;html=1;whiteSpace=wrap;connectable=0;overflow=hidden;fillColor=none;top=0;left=0;bottom=0;right=0;pointerEvents=1;strokeColor=#000000;fontSize=12;fontStyle=1;labelBackgroundColor=none;" parent="4ni6N4c9mznvYzL-rEoo-2" vertex="1">
                    <mxGeometry width="134" height="62" as="geometry">
                        <mxRectangle width="134" height="62" as="alternateBounds"/>
                    </mxGeometry>
                </mxCell>
                <mxCell id="4ni6N4c9mznvYzL-rEoo-4" value="Inspection Device Location" style="shape=partialRectangle;html=1;whiteSpace=wrap;connectable=0;overflow=hidden;fillColor=none;top=0;left=0;bottom=0;right=0;pointerEvents=1;dashed=1;dashPattern=8 8;strokeColor=default;fontSize=12;fontStyle=1;labelBackgroundColor=none;" parent="4ni6N4c9mznvYzL-rEoo-2" vertex="1">
                    <mxGeometry x="134" width="137" height="62" as="geometry">
                        <mxRectangle width="137" height="62" as="alternateBounds"/>
                    </mxGeometry>
                </mxCell>
                <mxCell id="4ni6N4c9mznvYzL-rEoo-5" value="Private Endpoint&lt;br&gt;Location" style="shape=partialRectangle;html=1;whiteSpace=wrap;connectable=0;overflow=hidden;fillColor=none;top=0;left=0;bottom=0;right=0;pointerEvents=1;dashed=1;dashPattern=8 8;strokeColor=default;fontSize=12;fontStyle=1;labelBackgroundColor=none;" parent="4ni6N4c9mznvYzL-rEoo-2" vertex="1">
                    <mxGeometry x="271" width="135" height="62" as="geometry">
                        <mxRectangle width="135" height="62" as="alternateBounds"/>
                    </mxGeometry>
                </mxCell>
                <mxCell id="4ni6N4c9mznvYzL-rEoo-6" value="&lt;font color=&quot;#ff0000&quot;&gt;SNAT&lt;/font&gt;" style="shape=partialRectangle;html=1;whiteSpace=wrap;connectable=0;overflow=hidden;fillColor=none;top=0;left=0;bottom=0;right=0;pointerEvents=1;dashed=1;dashPattern=8 8;strokeColor=default;fontSize=12;fontStyle=1;labelBackgroundColor=none;" parent="4ni6N4c9mznvYzL-rEoo-2" vertex="1">
                    <mxGeometry x="406" width="130" height="62" as="geometry">
                        <mxRectangle width="130" height="62" as="alternateBounds"/>
                    </mxGeometry>
                </mxCell>
                <mxCell id="4ni6N4c9mznvYzL-rEoo-7" value="" style="shape=tableRow;horizontal=0;startSize=0;swimlaneHead=0;swimlaneBody=0;top=0;left=0;bottom=0;right=0;collapsible=0;dropTarget=0;fillColor=none;points=[[0,0.5],[1,0.5]];portConstraint=eastwest;dashed=1;dashPattern=8 8;strokeColor=default;fontSize=12;" parent="4ni6N4c9mznvYzL-rEoo-1" vertex="1">
                    <mxGeometry y="62" width="536.099853515625" height="56" as="geometry"/>
                </mxCell>
                <mxCell id="4ni6N4c9mznvYzL-rEoo-8" value="On-premises" style="shape=partialRectangle;html=1;whiteSpace=wrap;connectable=0;overflow=hidden;fillColor=none;top=0;left=0;bottom=0;right=0;pointerEvents=1;strokeColor=default;fontSize=12;fontStyle=1" parent="4ni6N4c9mznvYzL-rEoo-7" vertex="1">
                    <mxGeometry width="134" height="56" as="geometry">
                        <mxRectangle width="134" height="56" as="alternateBounds"/>
                    </mxGeometry>
                </mxCell>
                <mxCell id="4ni6N4c9mznvYzL-rEoo-9" value="Hub" style="shape=partialRectangle;html=1;whiteSpace=wrap;connectable=0;overflow=hidden;fillColor=none;top=0;left=0;bottom=0;right=0;pointerEvents=1;dashed=1;dashPattern=8 8;strokeColor=default;fontSize=12;" parent="4ni6N4c9mznvYzL-rEoo-7" vertex="1">
                    <mxGeometry x="134" width="137" height="56" as="geometry">
                        <mxRectangle width="137" height="56" as="alternateBounds"/>
                    </mxGeometry>
                </mxCell>
                <mxCell id="4ni6N4c9mznvYzL-rEoo-10" value="Hub or Spoke" style="shape=partialRectangle;html=1;whiteSpace=wrap;connectable=0;overflow=hidden;fillColor=none;top=0;left=0;bottom=0;right=0;pointerEvents=1;dashed=1;dashPattern=8 8;strokeColor=default;fontSize=12;" parent="4ni6N4c9mznvYzL-rEoo-7" vertex="1">
                    <mxGeometry x="271" width="135" height="56" as="geometry">
                        <mxRectangle width="135" height="56" as="alternateBounds"/>
                    </mxGeometry>
                </mxCell>
                <mxCell id="4ni6N4c9mznvYzL-rEoo-11" value="No" style="shape=partialRectangle;html=1;whiteSpace=wrap;connectable=0;overflow=hidden;fillColor=none;top=0;left=0;bottom=0;right=0;pointerEvents=1;dashed=1;dashPattern=8 8;strokeColor=default;fontSize=12;" parent="4ni6N4c9mznvYzL-rEoo-7" vertex="1">
                    <mxGeometry x="406" width="130" height="56" as="geometry">
                        <mxRectangle width="130" height="56" as="alternateBounds"/>
                    </mxGeometry>
                </mxCell>
                <mxCell id="4ni6N4c9mznvYzL-rEoo-12" value="" style="shape=tableRow;horizontal=0;startSize=0;swimlaneHead=0;swimlaneBody=0;top=0;left=0;bottom=0;right=0;collapsible=0;dropTarget=0;fillColor=none;points=[[0,0.5],[1,0.5]];portConstraint=eastwest;dashed=1;dashPattern=8 8;strokeColor=default;fontSize=12;" parent="4ni6N4c9mznvYzL-rEoo-1" vertex="1">
                    <mxGeometry y="118" width="536.099853515625" height="80" as="geometry"/>
                </mxCell>
                <mxCell id="4ni6N4c9mznvYzL-rEoo-13" value="Hub&lt;span style=&quot;white-space: pre; font-size: 12px;&quot;&gt;&#9;&lt;/span&gt;" style="shape=partialRectangle;html=1;whiteSpace=wrap;connectable=0;overflow=hidden;fillColor=none;top=0;left=0;bottom=0;right=0;pointerEvents=1;strokeColor=default;fontSize=12;fontStyle=1" parent="4ni6N4c9mznvYzL-rEoo-12" vertex="1">
                    <mxGeometry width="134" height="80" as="geometry">
                        <mxRectangle width="134" height="80" as="alternateBounds"/>
                    </mxGeometry>
                </mxCell>
                <mxCell id="4ni6N4c9mznvYzL-rEoo-14" value="Hub" style="shape=partialRectangle;html=1;whiteSpace=wrap;connectable=0;overflow=hidden;fillColor=none;top=0;left=0;bottom=0;right=0;pointerEvents=1;dashed=1;dashPattern=8 8;strokeColor=default;fontSize=12;" parent="4ni6N4c9mznvYzL-rEoo-12" vertex="1">
                    <mxGeometry x="134" width="137" height="80" as="geometry">
                        <mxRectangle width="137" height="80" as="alternateBounds"/>
                    </mxGeometry>
                </mxCell>
                <mxCell id="4ni6N4c9mznvYzL-rEoo-15" value="Hub or Spoke" style="shape=partialRectangle;html=1;whiteSpace=wrap;connectable=0;overflow=hidden;fillColor=none;top=0;left=0;bottom=0;right=0;pointerEvents=1;dashed=1;dashPattern=8 8;strokeColor=default;fontSize=12;" parent="4ni6N4c9mznvYzL-rEoo-12" vertex="1">
                    <mxGeometry x="271" width="135" height="80" as="geometry">
                        <mxRectangle width="135" height="80" as="alternateBounds"/>
                    </mxGeometry>
                </mxCell>
                <mxCell id="4ni6N4c9mznvYzL-rEoo-16" value="&lt;font color=&quot;#ff0000&quot;&gt;Yes&lt;/font&gt;" style="shape=partialRectangle;html=1;whiteSpace=wrap;connectable=0;overflow=hidden;fillColor=none;top=0;left=0;bottom=0;right=0;pointerEvents=1;dashed=1;dashPattern=8 8;strokeColor=default;fontSize=12;" parent="4ni6N4c9mznvYzL-rEoo-12" vertex="1">
                    <mxGeometry x="406" width="130" height="80" as="geometry">
                        <mxRectangle width="130" height="80" as="alternateBounds"/>
                    </mxGeometry>
                </mxCell>
                <mxCell id="4ni6N4c9mznvYzL-rEoo-17" value="" style="shape=tableRow;horizontal=0;startSize=0;swimlaneHead=0;swimlaneBody=0;top=0;left=0;bottom=0;right=0;collapsible=0;dropTarget=0;fillColor=none;points=[[0,0.5],[1,0.5]];portConstraint=eastwest;dashed=1;dashPattern=8 8;strokeColor=default;fontSize=12;" parent="4ni6N4c9mznvYzL-rEoo-1" vertex="1">
                    <mxGeometry y="198" width="536.099853515625" height="60" as="geometry"/>
                </mxCell>
                <mxCell id="4ni6N4c9mznvYzL-rEoo-18" value="Spoke1" style="shape=partialRectangle;html=1;whiteSpace=wrap;connectable=0;overflow=hidden;fillColor=none;top=0;left=0;bottom=0;right=0;pointerEvents=1;dashed=1;dashPattern=8 8;strokeColor=default;fontSize=12;fontStyle=1" parent="4ni6N4c9mznvYzL-rEoo-17" vertex="1">
                    <mxGeometry width="134" height="60" as="geometry">
                        <mxRectangle width="134" height="60" as="alternateBounds"/>
                    </mxGeometry>
                </mxCell>
                <mxCell id="4ni6N4c9mznvYzL-rEoo-19" value="Hub" style="shape=partialRectangle;html=1;whiteSpace=wrap;connectable=0;overflow=hidden;fillColor=none;top=0;left=0;bottom=0;right=0;pointerEvents=1;dashed=1;dashPattern=8 8;strokeColor=default;fontSize=12;" parent="4ni6N4c9mznvYzL-rEoo-17" vertex="1">
                    <mxGeometry x="134" width="137" height="60" as="geometry">
                        <mxRectangle width="137" height="60" as="alternateBounds"/>
                    </mxGeometry>
                </mxCell>
                <mxCell id="4ni6N4c9mznvYzL-rEoo-20" value="Hub or Spoke" style="shape=partialRectangle;html=1;whiteSpace=wrap;connectable=0;overflow=hidden;fillColor=none;top=0;left=0;bottom=0;right=0;pointerEvents=1;dashed=1;dashPattern=8 8;strokeColor=default;fontSize=12;" parent="4ni6N4c9mznvYzL-rEoo-17" vertex="1">
                    <mxGeometry x="271" width="135" height="60" as="geometry">
                        <mxRectangle width="135" height="60" as="alternateBounds"/>
                    </mxGeometry>
                </mxCell>
                <mxCell id="4ni6N4c9mznvYzL-rEoo-21" value="No" style="shape=partialRectangle;html=1;whiteSpace=wrap;connectable=0;overflow=hidden;fillColor=none;top=0;left=0;bottom=0;right=0;pointerEvents=1;dashed=1;dashPattern=8 8;strokeColor=default;fontSize=12;" parent="4ni6N4c9mznvYzL-rEoo-17" vertex="1">
                    <mxGeometry x="406" width="130" height="60" as="geometry">
                        <mxRectangle width="130" height="60" as="alternateBounds"/>
                    </mxGeometry>
                </mxCell>
                <mxCell id="4ni6N4c9mznvYzL-rEoo-22" value="" style="shape=tableRow;horizontal=0;startSize=0;swimlaneHead=0;swimlaneBody=0;top=0;left=0;bottom=0;right=0;collapsible=0;dropTarget=0;fillColor=none;points=[[0,0.5],[1,0.5]];portConstraint=eastwest;dashed=1;dashPattern=8 8;strokeColor=default;fontSize=12;" parent="4ni6N4c9mznvYzL-rEoo-1" vertex="1">
                    <mxGeometry y="258" width="536.099853515625" height="62" as="geometry"/>
                </mxCell>
                <mxCell id="4ni6N4c9mznvYzL-rEoo-23" value="Spoke2" style="shape=partialRectangle;html=1;whiteSpace=wrap;connectable=0;overflow=hidden;fillColor=none;top=0;left=0;bottom=0;right=0;pointerEvents=1;dashed=1;dashPattern=8 8;strokeColor=default;fontSize=12;fontStyle=1" parent="4ni6N4c9mznvYzL-rEoo-22" vertex="1">
                    <mxGeometry width="134" height="62" as="geometry">
                        <mxRectangle width="134" height="62" as="alternateBounds"/>
                    </mxGeometry>
                </mxCell>
                <mxCell id="4ni6N4c9mznvYzL-rEoo-24" value="Hub" style="shape=partialRectangle;html=1;whiteSpace=wrap;connectable=0;overflow=hidden;fillColor=none;top=0;left=0;bottom=0;right=0;pointerEvents=1;dashed=1;dashPattern=8 8;strokeColor=default;fontSize=12;" parent="4ni6N4c9mznvYzL-rEoo-22" vertex="1">
                    <mxGeometry x="134" width="137" height="62" as="geometry">
                        <mxRectangle width="137" height="62" as="alternateBounds"/>
                    </mxGeometry>
                </mxCell>
                <mxCell id="4ni6N4c9mznvYzL-rEoo-25" value="Hub or Spoke" style="shape=partialRectangle;html=1;whiteSpace=wrap;connectable=0;overflow=hidden;fillColor=none;top=0;left=0;bottom=0;right=0;pointerEvents=1;dashed=1;dashPattern=8 8;strokeColor=default;fontSize=12;" parent="4ni6N4c9mznvYzL-rEoo-22" vertex="1">
                    <mxGeometry x="271" width="135" height="62" as="geometry">
                        <mxRectangle width="135" height="62" as="alternateBounds"/>
                    </mxGeometry>
                </mxCell>
                <mxCell id="4ni6N4c9mznvYzL-rEoo-26" value="No" style="shape=partialRectangle;html=1;whiteSpace=wrap;connectable=0;overflow=hidden;fillColor=none;top=0;left=0;bottom=0;right=0;pointerEvents=1;dashed=1;dashPattern=8 8;strokeColor=default;fontSize=12;" parent="4ni6N4c9mznvYzL-rEoo-22" vertex="1">
                    <mxGeometry x="406" width="130" height="62" as="geometry">
                        <mxRectangle width="130" height="62" as="alternateBounds"/>
                    </mxGeometry>
                </mxCell>
                <mxCell id="RMkz4okwXbkZOKKxkEhj-1" value="PE SNAT Behavior" style="text;strokeColor=none;align=center;fillColor=none;html=1;verticalAlign=middle;whiteSpace=wrap;rounded=0;fontSize=19;" parent="1" vertex="1">
                    <mxGeometry x="274" y="131" width="270" height="60" as="geometry"/>
                </mxCell>
            </root>
        </mxGraphModel>
    </diagram>
</mxfile>